<?xml version="1.0" encoding="utf-8"?>
<!-- Generator: Adobe Illustrator 24.0.3, SVG Export Plug-In . SVG Version: 6.00 Build 0)  -->
<svg version="1.1" id="Layer_1" xmlns="http://www.w3.org/2000/svg" xmlns:xlink="http://www.w3.org/1999/xlink" x="0px" y="0px"
	 width="235px" height="152px" viewBox="0 0 235 152" enable-background="new 0 0 235 152" xml:space="preserve">
<polygon fill="#FFFFFF" points="202.963,91.912 196.906,91.912 196.906,70.222 39.73,70.222 39.73,91.912 33.673,91.912 
	33.673,64.551 202.963,64.551 "/>
<rect x="36.437" y="19.681" fill="#FFFFFF" width="65.622" height="5.67"/>
<rect x="134.578" y="19.681" fill="#FFFFFF" width="65.622" height="5.67"/>
<rect x="36.437" y="33.842" fill="#FFFFFF" width="65.622" height="5.67"/>
<rect x="134.578" y="33.842" fill="#FFFFFF" width="65.622" height="5.67"/>
<rect x="212.093" y="67.386" fill="#FFFFFF" width="6.057" height="8.202"/>
<polygon fill="#FFFFFF" points="121.345,106.374 115.288,106.374 115.288,88.687 108.994,83.362 113.052,79.153 121.345,86.167 "/>
<polygon fill="#FFFFFF" points="120.346,89.531 116.288,85.322 123.584,79.154 127.642,83.362 "/>
<polygon fill="#FFFFFF" points="108.562,113.282 92.201,104.437 84.126,106.881 82.262,101.487 92.898,98.27 111.591,108.37 "/>
<polygon fill="#FFFFFF" points="89.589,101.949 87.527,92.95 93.448,91.76 95.509,100.759 "/>
<polygon fill="#FFFFFF" points="93.448,138.804 87.528,137.614 89.869,127.386 108.563,117.28 111.591,122.192 95.229,131.035 "/>
<polygon fill="#FFFFFF" points="91.618,131.907 82.262,129.075 84.125,123.681 93.48,126.514 "/>
<polygon fill="#FFFFFF" points="115.288,124.19 115.288,144.397 123.584,151.411 127.643,147.203 121.346,141.879 121.346,124.19 
	"/>
<polygon fill="#FFFFFF" points="108.994,147.202 113.051,151.41 120.345,145.241 116.288,141.033 "/>
<polygon fill="#FFFFFF" points="143.738,132.295 125.046,122.191 128.074,117.279 144.437,126.126 152.511,123.681 154.374,129.074 
	"/>
<polygon fill="#FFFFFF" points="143.185,138.802 141.126,129.803 147.048,128.619 149.107,137.616 "/>
<polygon fill="#FFFFFF" points="128.074,113.282 125.045,108.37 141.408,99.529 143.185,91.762 149.107,92.948 146.766,103.178 "/>
<polygon fill="#FFFFFF" points="152.511,106.881 143.156,104.051 145.018,98.658 154.373,101.487 "/>
<polygon fill="#FFFFFF" points="0,0 0,95.893 57.244,95.893 57.244,90.252 6.026,90.252 6.026,5.64 228.976,5.64 228.976,90.252 
	177.756,90.252 177.756,95.893 235,95.893 235,0 "/>
</svg>
