<?xml version="1.0" encoding="utf-8"?>
<!-- Generator: Adobe Illustrator 24.0.3, SVG Export Plug-In . SVG Version: 6.00 Build 0)  -->
<svg version="1.1" id="Layer_1" xmlns="http://www.w3.org/2000/svg" xmlns:xlink="http://www.w3.org/1999/xlink" x="0px" y="0px"
	 width="150px" height="150px" viewBox="0 0 150 150" enable-background="new 0 0 150 150" xml:space="preserve">
<g>
	<defs>
		<rect id="SVGID_1_" width="149.203" height="150"/>
	</defs>
	<clipPath id="SVGID_2_">
		<use xlink:href="#SVGID_1_"  overflow="visible"/>
	</clipPath>
	<path clip-path="url(#SVGID_2_)" fill="#FFFFFF" d="M40.212,71.499H20.665v6.384h19.547V71.499z M61.93,56.481H20.665v6.384H61.93
		V56.481z M20.665,47.845h64.991v-6.384H20.665V47.845z M102.802,109.762h22.094v-6.384h-15.74V77.88h-6.354v25.498v5.108V109.762z
		 M142.849,106.57c0,20.459-16.506,37.045-36.869,37.045c-20.365,0-36.872-16.586-36.872-37.045s16.506-37.045,36.872-37.045
		C126.343,69.525,142.849,86.111,142.849,106.57 M112.813,63.736c-2.23-0.358-4.501-0.595-6.833-0.595
		c-23.872,0-43.225,19.445-43.225,43.429c0,2.682,0.278,5.298,0.742,7.845H6.353V19.993h7.749v10.42H33.51v-10.42h52.146v10.42
		h19.409v-10.42h7.749V63.736z M98.711,24.029H92.01V6.384h6.701V24.029z M27.157,24.029h-6.701V6.384h6.701V24.029z
		 M149.203,106.57c0-19.362-12.617-35.75-30.035-41.354V13.612h-14.102V0H85.656v13.612H33.51V0H14.102v13.612H-0.001V120.8h65.178
		c5.869,16.986,21.895,29.2,40.802,29.2C129.852,150,149.203,130.555,149.203,106.57"/>
</g>
</svg>
