<?xml version="1.0" encoding="utf-8"?>
<!-- Generator: Adobe Illustrator 24.0.3, SVG Export Plug-In . SVG Version: 6.00 Build 0)  -->
<svg version="1.1" id="Layer_1" xmlns="http://www.w3.org/2000/svg" xmlns:xlink="http://www.w3.org/1999/xlink" x="0px" y="0px"
	 width="126px" height="150px" viewBox="0 0 126 150" enable-background="new 0 0 126 150" xml:space="preserve">
<g>
	<defs>
		<rect id="SVGID_1_" y="0" width="126.429" height="150"/>
	</defs>
	<clipPath id="SVGID_2_">
		<use xlink:href="#SVGID_1_"  overflow="visible"/>
	</clipPath>
	<path clip-path="url(#SVGID_2_)" fill="#FFFFFF" d="M33.495,33.437c-2.675,0-5.208,1.008-7.16,2.898
		c-2.45,2.373-3.54,5.696-2.994,9.113c0.687,4.279,4.157,7.748,8.437,8.432c3.415,0.553,6.742-0.541,9.116-2.99
		c2.376-2.452,3.36-5.817,2.7-9.234c-0.78-4.019-4.002-7.241-8.022-8.02C34.876,33.501,34.179,33.437,33.495,33.437 M33.532,58.454
		c-0.812,0-1.631-0.064-2.456-0.199c-6.146-0.983-11.126-5.96-12.112-12.106c-0.782-4.865,0.782-9.601,4.286-12.997
		c3.507-3.399,8.302-4.823,13.166-3.867c5.78,1.114,10.413,5.748,11.528,11.526c0.941,4.859-0.47,9.656-3.868,13.162
		C41.257,56.885,37.509,58.454,33.532,58.454"/>
	<path clip-path="url(#SVGID_2_)" fill="#FFFFFF" d="M77.291,58.454c-8.122,0-14.73-6.605-14.73-14.726
		c0-8.12,6.608-14.725,14.73-14.725v4.434c-5.676,0-10.295,4.617-10.295,10.291S71.615,54.02,77.291,54.02V58.454z"/>
	<path clip-path="url(#SVGID_2_)" fill="#FFFFFF" d="M76.851,70.963c-8.534,0-16.563-4.043-21.677-10.74
		c-5.117,6.697-13.145,10.74-21.676,10.74c-9.895,0-19.029-5.378-23.834-14.036l3.88-2.15c4.023,7.25,11.67,11.752,19.954,11.752
		c8.116,0,15.685-4.368,19.758-11.401l1.918-3.316l1.919,3.316c4.069,7.033,11.638,11.401,19.758,11.401V70.963z"/>
	<path clip-path="url(#SVGID_2_)" fill="#FFFFFF" d="M33.495,83.471c-2.787,0-5.41,1.093-7.377,3.115
		c-2.352,2.419-3.352,5.742-2.738,9.122c0.749,4.135,4.033,7.418,8.172,8.17c3.378,0.613,6.705-0.385,9.124-2.737
		c2.417-2.351,3.507-5.64,2.991-9.021c-0.657-4.281-4.244-7.866-8.526-8.523C34.588,83.514,34.039,83.471,33.495,83.471
		 M33.519,108.489c-0.91,0-1.832-0.082-2.755-0.25c-5.951-1.078-10.671-5.797-11.746-11.742c-0.87-4.804,0.559-9.544,3.922-13
		c3.366-3.457,8.052-5.024,12.872-4.279c6.247,0.956,11.278,5.985,12.235,12.231c0.738,4.816-0.822,9.507-4.28,12.869
		C40.976,107.035,37.348,108.489,33.519,108.489"/>
	<path clip-path="url(#SVGID_2_)" fill="#FFFFFF" d="M77.291,108.489c-8.122,0-14.73-6.605-14.73-14.726
		c0-8.12,6.608-14.725,14.73-14.725v4.434c-5.676,0-10.295,4.617-10.295,10.291s4.619,10.292,10.295,10.292V108.489z"/>
	<path clip-path="url(#SVGID_2_)" fill="#FFFFFF" d="M76.851,120.997c-8.534,0-16.563-4.043-21.677-10.74
		c-5.117,6.697-13.145,10.74-21.676,10.74c-9.895,0-19.029-5.378-23.834-14.036l3.88-2.15c4.023,7.25,11.67,11.752,19.954,11.752
		c8.116,0,15.685-4.367,19.758-11.401l1.918-3.316l1.919,3.316c4.069,7.034,11.638,11.401,19.758,11.401V120.997z"/>
</g>
<polygon fill="#FFFFFF" points="0,13.367 0,136.633 86.675,136.633 86.675,132.199 4.436,132.199 4.436,17.801 86.675,17.801 
	86.675,13.367 "/>
<path fill="#FFFFFF" d="M88.893,6.15l33.1,11.03v115.639l-33.1,11.03V6.15z M84.457,0v150l41.972-13.986V13.988L84.457,0z"/>
<polygon fill="#FFFFFF" points="34.417,146.015 20.067,146.015 16.291,142.237 19.425,139.104 21.905,141.581 32.579,141.581 
	35.059,139.104 38.193,142.237 "/>
<polygon fill="#FFFFFF" points="80.419,146.015 70.115,146.015 66.34,142.237 69.474,139.104 71.954,141.581 80.419,141.581 "/>
</svg>
