<?xml version="1.0" encoding="utf-8"?>
<!-- Generator: Adobe Illustrator 24.0.3, SVG Export Plug-In . SVG Version: 6.00 Build 0)  -->
<svg version="1.1" id="Layer_1" xmlns="http://www.w3.org/2000/svg" xmlns:xlink="http://www.w3.org/1999/xlink" x="0px" y="0px"
	 width="138px" height="150px" viewBox="0 0 138 150" enable-background="new 0 0 138 150" xml:space="preserve">
<path fill="#FFFFFF" d="M28.885,98.374h-3.172v9.61v9.607h3.172h3.167v-9.607v-9.61H28.885z M105.688,117.591h6.092V98.374h-6.092
	V117.591z M28.885,64.405h-3.172v6.389v6.392h3.172h3.167v-6.392v-6.389H28.885z M68.747,64.405h-3.296v6.389v6.392h3.296h3.298
	v-6.392v-6.389H68.747z M108.736,64.405h-3.047v6.389v6.392h3.047h3.045v-6.392v-6.389H108.736z M47.028,17.878h-3.296v12.779h3.296
	h3.296V17.878H47.028z M90.468,17.878h-3.296v12.779h3.296h3.296V17.878H90.468z M6.343,48.306h124.81v95.322H82.329V98.374H55.657
	v45.254H6.343V48.306z M25.472,6.129h85.454v35.805H25.472V6.129z M19.37,0l0.002,41.934H0v107.901V150h61.99v-45.258h14.027V150
	h61.479V41.934h-20.47V0H19.37z"/>
</svg>
