<?xml version="1.0" encoding="utf-8"?>
<!-- Generator: Adobe Illustrator 24.0.3, SVG Export Plug-In . SVG Version: 6.00 Build 0)  -->
<svg version="1.1" id="Layer_1" xmlns="http://www.w3.org/2000/svg" xmlns:xlink="http://www.w3.org/1999/xlink" x="0px" y="0px"
	 width="144px" height="150px" viewBox="0 0 144 150" enable-background="new 0 0 144 150" xml:space="preserve">
<g>
	<defs>
		<rect id="SVGID_1_" y="0" width="143.608" height="150"/>
	</defs>
	<clipPath id="SVGID_2_">
		<use xlink:href="#SVGID_1_"  overflow="visible"/>
	</clipPath>
	<path clip-path="url(#SVGID_2_)" fill="#FFFFFF" d="M30.773,144.643h82.061V91.072c0-23.631-18.407-42.857-41.031-42.857
		S30.773,67.441,30.773,91.072V144.643z M117.964,150H25.644V91.072c0-26.584,20.708-48.215,46.16-48.215
		c25.454,0,46.16,21.631,46.16,48.215V150z"/>
</g>
<polygon fill="#FFFFFF" points="87.19,47.519 82.062,47.519 82.062,32.143 61.546,32.143 61.546,47.519 56.417,47.519 
	56.417,26.786 87.19,26.786 "/>
<path fill="#FFFFFF" d="M61.546,5.358h47.663l-5.129,5.357H61.546V5.358z M56.417,0v16.072h49.785L121.589,0H56.417z"/>
<g>
	<defs>
		<rect id="SVGID_3_" y="0" width="143.608" height="150"/>
	</defs>
	<clipPath id="SVGID_4_">
		<use xlink:href="#SVGID_3_"  overflow="visible"/>
	</clipPath>
	<path clip-path="url(#SVGID_4_)" fill="#FFFFFF" d="M69.239,26.786h5.129V16.072h-5.129V26.786z M76.933,32.143H66.675
		c-1.417,0-2.564-1.197-2.564-2.679V13.393c0-1.481,1.147-2.679,2.564-2.679h10.258c1.417,0,2.564,1.198,2.564,2.679v16.071
		C79.497,30.946,78.35,32.143,76.933,32.143"/>
	<path clip-path="url(#SVGID_4_)" fill="#FFFFFF" d="M25.644,5.357c-2.828,0-5.129,2.404-5.129,5.358
		c0,2.953,2.301,5.357,5.129,5.357s5.129-2.404,5.129-5.357C30.773,7.761,28.472,5.357,25.644,5.357 M25.644,21.429
		c-5.657,0-10.258-4.805-10.258-10.714C15.387,4.806,19.987,0,25.644,0s10.258,4.806,10.258,10.715
		C35.902,16.624,31.301,21.429,25.644,21.429"/>
	<path clip-path="url(#SVGID_4_)" fill="#FFFFFF" d="M133.35,53.571c-2.83,0-5.129,2.404-5.129,5.358
		c0,2.953,2.298,5.357,5.129,5.357c2.83,0,5.129-2.404,5.129-5.357C138.479,55.975,136.181,53.571,133.35,53.571 M133.35,69.643
		c-5.655,0-10.258-4.805-10.258-10.714s4.603-10.715,10.258-10.715c5.655,0,10.258,4.806,10.258,10.715
		S139.005,69.643,133.35,69.643"/>
	<path clip-path="url(#SVGID_4_)" fill="#FFFFFF" d="M38.466,32.143c-1.415,0-2.564,1.2-2.564,2.678s1.15,2.679,2.564,2.679
		c1.415,0,2.564-1.201,2.564-2.679S39.881,32.143,38.466,32.143 M38.466,42.857c-4.242,0-7.693-3.605-7.693-8.036
		c0-4.431,3.451-8.036,7.693-8.036c4.242,0,7.693,3.605,7.693,8.036C46.16,39.252,42.708,42.857,38.466,42.857"/>
	<path clip-path="url(#SVGID_4_)" fill="#FFFFFF" d="M100.178,93.918c-6.631,0-13.183-1.811-19.088-5.347l-9.789-5.833
		c-8.04-4.771-17.696-5.859-26.478-2.985l-14.979,4.879c-1.362,0.449-2.79-0.346-3.213-1.764c-0.42-1.412,0.333-2.912,1.685-3.353
		l14.976-4.876c10.144-3.316,21.274-2.063,30.548,3.443l9.799,5.838c7.528,4.505,16.278,5.786,24.623,3.589l6.456-1.711
		c1.378-0.382,2.765,0.502,3.115,1.936c0.351,1.433-0.481,2.893-1.853,3.254l-6.462,1.716
		C106.429,93.515,103.293,93.918,100.178,93.918"/>
	<path clip-path="url(#SVGID_4_)" fill="#FFFFFF" d="M7.693,42.857H2.564C1.147,42.857,0,41.66,0,40.178
		C0,38.698,1.147,37.5,2.564,37.5h5.129c1.417,0,2.564,1.197,2.564,2.678C10.258,41.66,9.111,42.857,7.693,42.857"/>
	<path clip-path="url(#SVGID_4_)" fill="#FFFFFF" d="M12.822,37.5c-1.417,0-2.564-1.197-2.564-2.679v-5.357
		c0-1.481,1.147-2.678,2.564-2.678s2.564,1.197,2.564,2.678v5.357C15.387,36.303,14.24,37.5,12.822,37.5"/>
	<path clip-path="url(#SVGID_4_)" fill="#FFFFFF" d="M23.08,42.857h-5.129c-1.417,0-2.564-1.197-2.564-2.679
		c0-1.481,1.147-2.678,2.564-2.678h5.129c1.417,0,2.564,1.197,2.564,2.678C25.644,41.66,24.497,42.857,23.08,42.857"/>
	<path clip-path="url(#SVGID_4_)" fill="#FFFFFF" d="M12.822,53.572c-1.417,0-2.564-1.197-2.564-2.679v-5.357
		c0-1.481,1.147-2.678,2.564-2.678s2.564,1.197,2.564,2.678v5.357C15.387,52.374,14.24,53.572,12.822,53.572"/>
	<path clip-path="url(#SVGID_4_)" fill="#FFFFFF" d="M125.657,26.786h-5.129c-1.417,0-2.564-1.197-2.564-2.679
		c0-1.481,1.147-2.678,2.564-2.678h5.129c1.417,0,2.564,1.197,2.564,2.678C128.221,25.589,127.074,26.786,125.657,26.786"/>
	<path clip-path="url(#SVGID_4_)" fill="#FFFFFF" d="M130.786,21.429c-1.417,0-2.564-1.197-2.564-2.679v-5.357
		c0-1.481,1.147-2.678,2.564-2.678c1.417,0,2.564,1.197,2.564,2.678v5.357C133.35,20.231,132.203,21.429,130.786,21.429"/>
	<path clip-path="url(#SVGID_4_)" fill="#FFFFFF" d="M141.043,26.786h-5.129c-1.417,0-2.564-1.197-2.564-2.679
		c0-1.481,1.147-2.678,2.564-2.678h5.129c1.417,0,2.564,1.197,2.564,2.678C143.608,25.589,142.461,26.786,141.043,26.786"/>
	<path clip-path="url(#SVGID_4_)" fill="#FFFFFF" d="M130.786,37.5c-1.417,0-2.564-1.197-2.564-2.679v-5.357
		c0-1.481,1.147-2.678,2.564-2.678c1.417,0,2.564,1.197,2.564,2.678v5.357C133.35,36.303,132.203,37.5,130.786,37.5"/>
	<path clip-path="url(#SVGID_4_)" fill="#FFFFFF" d="M115.399,37.501c-1.413,0-2.564,1.2-2.564,2.678s1.151,2.679,2.564,2.679
		c1.412,0,2.564-1.201,2.564-2.679S116.811,37.501,115.399,37.501 M115.399,48.214c-4.242,0-7.693-3.605-7.693-8.036
		s3.451-8.036,7.693-8.036c4.242,0,7.693,3.605,7.693,8.036S119.641,48.214,115.399,48.214"/>
</g>
</svg>
