<?xml version="1.0" encoding="utf-8"?>
<!-- Generator: Adobe Illustrator 24.0.3, SVG Export Plug-In . SVG Version: 6.00 Build 0)  -->
<svg version="1.1" id="Layer_1" xmlns="http://www.w3.org/2000/svg" xmlns:xlink="http://www.w3.org/1999/xlink" x="0px" y="0px"
	 width="184px" height="150px" viewBox="0 0 184 150" enable-background="new 0 0 184 150" xml:space="preserve">
<g>
	<defs>
		<rect id="SVGID_1_" width="183" height="149.778"/>
	</defs>
	<clipPath id="SVGID_2_">
		<use xlink:href="#SVGID_1_"  overflow="visible"/>
	</clipPath>
	<path clip-path="url(#SVGID_2_)" fill="#686868" d="M91.414,93.03c-24.527,0-44.411-19.884-44.411-44.411
		c0-24.528,19.884-44.411,44.411-44.411c23.811,0,43.244,18.74,44.359,42.275h-26.818c3.819-3.22,6.247-8.037,6.247-13.424
		c0-9.348-7.308-16.987-16.521-17.521v-0.033H73.9l4.131,4.131h19.619c7.414,0,13.424,6.01,13.424,13.424
		c0,7.414-6.01,13.424-13.424,13.424H57.378l4.13,4.13h36.141c7.414,0,13.424,6.01,13.424,13.424s-6.01,13.424-13.424,13.424H78.03
		L73.9,81.59h24.783v-0.032c9.214-0.535,16.521-8.174,16.521-17.521c0-5.387-2.428-10.203-6.247-13.424h26.823
		C134.736,74.215,115.274,93.03,91.414,93.03 M91.5,0C64.696,0,42.967,21.73,42.967,48.534S64.696,97.067,91.5,97.067
		s48.533-21.729,48.533-48.533S118.304,0,91.5,0"/>
	<path clip-path="url(#SVGID_2_)" fill="#DCDCDC" d="M176.766,149.491c0.078-0.417,0.199-0.741,0.361-0.971
		c0.731,0.839,1.643,1.258,2.738,1.258c0.952,0,1.712-0.267,2.281-0.802c0.569-0.535,0.854-1.229,0.854-2.083
		c0-0.54-0.118-1.016-0.353-1.428c-0.235-0.412-0.548-0.734-0.938-0.968c-0.39-0.233-1.014-0.541-1.873-0.923
		c-0.898-0.403-1.519-0.766-1.862-1.089c-0.349-0.319-0.523-0.709-0.523-1.17c0-0.383,0.139-0.734,0.416-1.056
		c0.277-0.321,0.713-0.482,1.306-0.482c0.623,0,1.172,0.218,1.645,0.655c0.473,0.437,0.803,1.035,0.99,1.796h0.324v-2.613h-0.324
		c-0.029,0.314-0.157,0.606-0.383,0.876c-0.392-0.431-0.775-0.716-1.148-0.853c-0.373-0.138-0.77-0.206-1.192-0.206
		c-0.756,0-1.38,0.237-1.873,0.71c-0.493,0.474-0.74,1.066-0.74,1.777c0,0.467,0.114,0.906,0.342,1.318
		c0.228,0.412,0.546,0.747,0.953,1.005c0.407,0.257,1.011,0.558,1.811,0.902c0.898,0.382,1.516,0.741,1.854,1.074
		c0.339,0.339,0.508,0.758,0.508,1.258c0,0.495-0.193,0.943-0.578,1.343c-0.385,0.4-0.928,0.6-1.63,0.6
		c-1.56,0-2.549-1.045-2.966-3.135h-0.368v3.208H176.766z M166.769,146.658c-0.221,0.79-0.465,1.366-0.732,1.729
		c-0.267,0.363-0.549,0.599-0.846,0.706c-0.297,0.108-0.752,0.162-1.365,0.162h-0.758c-0.574,0-0.948-0.05-1.123-0.151
		c-0.174-0.1-0.281-0.242-0.32-0.423c-0.039-0.182-0.059-0.633-0.059-1.354v-5.225c0-0.829,0.026-1.354,0.077-1.575
		c0.052-0.221,0.153-0.371,0.306-0.453c0.152-0.081,0.473-0.121,0.964-0.121h0.442v-0.339h-4.791v0.339h0.221
		c0.505,0,0.833,0.044,0.983,0.132c0.15,0.089,0.247,0.248,0.294,0.478c0.046,0.231,0.07,0.743,0.07,1.538v4.894
		c0,0.834-0.023,1.365-0.07,1.593c-0.047,0.228-0.152,0.396-0.317,0.504c-0.164,0.108-0.46,0.162-0.887,0.162h-0.295v0.339h8.478
		l0.074-2.936H166.769z M148.305,148.221c-0.307,0.42-0.629,0.697-0.968,0.832c-0.339,0.135-0.77,0.202-1.295,0.202h-0.743
		c-0.667,0-1.077-0.104-1.229-0.313c-0.152-0.208-0.228-0.904-0.228-2.086v-2.362h1.097c0.427,0,0.73,0.028,0.909,0.085
		c0.179,0.056,0.315,0.179,0.408,0.368c0.093,0.189,0.14,0.56,0.14,1.115h0.346v-3.415h-0.346c0,0.491-0.031,0.82-0.092,0.99
		c-0.061,0.169-0.189,0.296-0.383,0.379c-0.194,0.083-0.533,0.125-1.019,0.125h-1.06v-4.188h1.383c0.697,0,1.202,0.038,1.516,0.114
		c0.314,0.076,0.585,0.26,0.813,0.552c0.228,0.292,0.421,0.786,0.578,1.483h0.346l-0.236-2.488h-7.131v0.339
		c0.481,0,0.796,0.048,0.946,0.144c0.15,0.096,0.245,0.264,0.287,0.504c0.042,0.241,0.062,0.741,0.062,1.501v4.894
		c0,0.834-0.02,1.353-0.059,1.557c-0.039,0.203-0.131,0.371-0.276,0.504c-0.145,0.132-0.465,0.199-0.961,0.199h-0.206v0.339h8.264
		l0.214-3.105h-0.353C148.854,147.224,148.612,147.802,148.305,148.221 M122.787,140.601c0.194-0.309,0.401-0.494,0.622-0.556
		c0.221-0.061,0.652-0.092,1.295-0.092h1.479v7.043c0,0.834-0.023,1.365-0.07,1.593c-0.047,0.228-0.152,0.396-0.317,0.504
		c-0.164,0.108-0.46,0.162-0.887,0.162h-0.515v0.339h4.975v-0.339h-0.485c-0.447,0-0.751-0.059-0.913-0.176
		c-0.162-0.118-0.261-0.299-0.298-0.545c-0.037-0.246-0.055-0.758-0.055-1.538v-7.043h1.604c0.545,0,0.93,0.033,1.155,0.1
		c0.225,0.066,0.436,0.245,0.633,0.537c0.196,0.292,0.351,0.766,0.463,1.424h0.317l-0.051-2.399h-9.685l-0.052,2.399h0.339
		C122.445,141.381,122.593,140.91,122.787,140.601 M104.768,141.009c0.641-0.807,1.561-1.211,2.764-1.211
		c1.222,0,2.153,0.414,2.796,1.24c0.643,0.827,0.964,2.015,0.964,3.565c0,1.595-0.326,2.794-0.979,3.599
		c-0.653,0.805-1.541,1.207-2.664,1.207c-1.28,0-2.241-0.402-2.881-1.207c-0.64-0.805-0.96-2.009-0.96-3.613
		C103.808,143.01,104.128,141.816,104.768,141.009 M103.646,148.343c1.016,0.957,2.316,1.435,3.9,1.435
		c1.629,0,2.943-0.478,3.941-1.435c0.998-0.957,1.497-2.208,1.497-3.753c0-1.594-0.521-2.853-1.564-3.775
		c-1.043-0.922-2.342-1.383-3.897-1.383c-1.541,0-2.826,0.466-3.857,1.398c-1.03,0.932-1.545,2.169-1.545,3.709
		C102.123,146.118,102.63,147.386,103.646,148.343 M89.616,146.996c0,0.834-0.022,1.365-0.066,1.593
		c-0.044,0.228-0.148,0.396-0.313,0.504c-0.164,0.108-0.457,0.162-0.88,0.162h-0.346v0.339h4.541v-0.339h-0.228
		c-0.447,0-0.751-0.059-0.913-0.176c-0.162-0.118-0.261-0.298-0.298-0.541c-0.037-0.243-0.055-0.757-0.055-1.542v-4.894
		c0-0.829,0.026-1.354,0.077-1.575c0.051-0.221,0.153-0.371,0.306-0.453c0.152-0.081,0.473-0.121,0.964-0.121h0.147v-0.339h-4.541
		v0.339h0.265c0.505,0,0.833,0.044,0.982,0.132c0.15,0.089,0.247,0.248,0.291,0.478c0.044,0.231,0.066,0.743,0.066,1.538v1.98h-5.21
		v-1.98c0-0.829,0.025-1.354,0.077-1.575c0.051-0.221,0.153-0.371,0.305-0.453c0.152-0.081,0.471-0.121,0.957-0.121h0.184v-0.339
		H81.44v0.339h0.184c0.505,0,0.833,0.044,0.982,0.132c0.15,0.089,0.248,0.248,0.294,0.478c0.047,0.231,0.07,0.743,0.07,1.538v4.894
		c0,0.834-0.023,1.365-0.07,1.593c-0.046,0.228-0.152,0.396-0.316,0.504c-0.164,0.108-0.46,0.162-0.887,0.162H81.44v0.339h4.489
		v-0.339h-0.258c-0.446,0-0.749-0.059-0.909-0.176c-0.16-0.118-0.259-0.298-0.298-0.541c-0.039-0.243-0.059-0.757-0.059-1.542
		v-2.406h5.21V146.996z M51.271,140.601c0.194-0.309,0.401-0.494,0.622-0.556c0.221-0.061,0.652-0.092,1.295-0.092h1.479v7.043
		c0,0.834-0.024,1.365-0.07,1.593c-0.046,0.228-0.152,0.396-0.316,0.504c-0.164,0.108-0.46,0.162-0.887,0.162h-0.515v0.339h4.975
		v-0.339h-0.486c-0.446,0-0.751-0.059-0.913-0.176c-0.162-0.118-0.261-0.299-0.298-0.545c-0.037-0.246-0.055-0.758-0.055-1.538
		v-7.043h1.604c0.545,0,0.93,0.033,1.155,0.1c0.226,0.066,0.437,0.245,0.633,0.537c0.196,0.292,0.35,0.766,0.463,1.424h0.317
		l-0.052-2.399h-9.685l-0.051,2.399h0.339C50.929,141.381,51.077,140.91,51.271,140.601 M37.083,139.953
		c0.505,0,0.834,0.044,0.986,0.132c0.152,0.089,0.25,0.248,0.294,0.478c0.044,0.231,0.066,0.743,0.066,1.538v4.894
		c0,0.834-0.022,1.365-0.066,1.593c-0.044,0.228-0.149,0.396-0.313,0.504c-0.164,0.108-0.46,0.162-0.887,0.162h-0.294v0.339h4.563
		v-0.339h-0.295c-0.451,0-0.757-0.059-0.916-0.176c-0.16-0.118-0.258-0.298-0.295-0.541c-0.037-0.243-0.055-0.757-0.055-1.542
		v-4.894c0-0.829,0.025-1.354,0.077-1.575c0.051-0.221,0.153-0.371,0.305-0.453c0.152-0.081,0.474-0.121,0.964-0.121h0.214v-0.339
		h-4.563v0.339H37.083z M20.617,139.879c0.235-0.019,0.444-0.029,0.625-0.029c1.178,0,1.942,0.211,2.292,0.633
		c0.351,0.422,0.526,0.984,0.526,1.685c0,0.403-0.051,0.741-0.154,1.016c-0.103,0.275-0.244,0.497-0.423,0.666
		c-0.179,0.169-0.414,0.298-0.703,0.386c-0.289,0.089-0.631,0.143-1.023,0.162c-0.392,0.02-0.773,0.035-1.141,0.044V139.879z
		 M28.16,149.255c-0.589-0.019-1.099-0.186-1.531-0.5c-0.432-0.314-1.026-0.979-1.781-1.994c-0.927-1.251-1.6-1.977-2.017-2.178
		c0.932-0.113,1.639-0.4,2.12-0.861c0.481-0.461,0.721-1.018,0.721-1.67c0-0.56-0.184-1.04-0.552-1.443
		c-0.368-0.402-0.85-0.692-1.446-0.868c-0.596-0.177-1.37-0.265-2.322-0.265c-0.56,0-1.315,0.022-2.267,0.066l-1.428,0.074v0.339
		h0.169c0.505,0,0.834,0.044,0.986,0.132c0.152,0.089,0.25,0.248,0.294,0.478c0.044,0.231,0.066,0.743,0.066,1.538v4.894
		c0,0.834-0.022,1.365-0.066,1.593c-0.044,0.228-0.148,0.396-0.313,0.504c-0.164,0.108-0.46,0.162-0.887,0.162h-0.324v0.339h4.776
		v-0.339h-0.478c-0.451,0-0.757-0.059-0.916-0.176c-0.16-0.118-0.258-0.298-0.294-0.541c-0.037-0.243-0.055-0.757-0.055-1.542
		v-2.215h0.397c0.27,0,0.468,0.046,0.596,0.136c0.128,0.091,0.361,0.343,0.699,0.758c0.339,0.415,0.665,0.848,0.979,1.299
		c0.981,1.413,1.71,2.286,2.186,2.62h2.686V149.255z M3.65,144.428c1.119,0,1.9,0.195,2.344,0.585
		c0.444,0.39,0.666,0.997,0.666,1.822c0,0.805-0.196,1.408-0.589,1.81c-0.392,0.403-0.981,0.604-1.766,0.604
		c-0.442,0-0.737-0.066-0.887-0.199c-0.15-0.132-0.242-0.326-0.276-0.581c-0.034-0.255-0.051-0.856-0.051-1.803v-2.223
		C3.287,144.433,3.474,144.428,3.65,144.428 M3.091,139.894c0.201-0.015,0.397-0.022,0.589-0.022c0.736,0,1.256,0.077,1.56,0.232
		c0.304,0.155,0.532,0.374,0.684,0.659c0.152,0.285,0.228,0.687,0.228,1.207c0,0.746-0.194,1.285-0.581,1.619s-1.111,0.5-2.171,0.5
		c-0.084,0-0.187-0.002-0.309-0.007V139.894z M7.01,143.427c0.468-0.392,0.703-0.913,0.703-1.56c0-1.57-1.364-2.355-4.092-2.355
		l-1.869,0.059l-1.641,0.044v0.339h0.191c0.505,0,0.833,0.044,0.983,0.132c0.15,0.089,0.247,0.25,0.294,0.486
		c0.046,0.235,0.07,0.758,0.07,1.568v4.857c0,0.834-0.022,1.365-0.066,1.593c-0.044,0.228-0.148,0.396-0.313,0.504
		c-0.164,0.108-0.46,0.162-0.887,0.162H0v0.339h3.915c0.976,0,1.755-0.07,2.336-0.21c0.581-0.14,1.059-0.437,1.432-0.891
		c0.373-0.453,0.559-0.995,0.559-1.622c0-0.721-0.275-1.323-0.824-1.803c-0.549-0.481-1.391-0.763-2.524-0.846
		C5.836,144.084,6.541,143.819,7.01,143.427"/>
</g>
</svg>
