<?xml version="1.0" encoding="utf-8"?>
<!-- Generator: Adobe Illustrator 24.0.3, SVG Export Plug-In . SVG Version: 6.00 Build 0)  -->
<svg version="1.1" id="Layer_1" xmlns="http://www.w3.org/2000/svg" xmlns:xlink="http://www.w3.org/1999/xlink" x="0px" y="0px"
	 width="415px" height="150px" viewBox="0 0 415 150" enable-background="new 0 0 415 150" xml:space="preserve">
<line fill="none" stroke="#FFFFFF" stroke-width="3.2346" x1="70.982" y1="59.388" x2="6.469" y2="6.469"/>
<g>
	<defs>
		<rect id="SVGID_1_" width="414.816" height="150"/>
	</defs>
	<clipPath id="SVGID_2_">
		<use xlink:href="#SVGID_1_"  overflow="visible"/>
	</clipPath>
	<path clip-path="url(#SVGID_2_)" fill="#FFFFFF" d="M0,6.469c0,3.573,2.896,6.469,6.469,6.469s6.471-2.896,6.471-6.469
		C12.94,2.896,10.043,0,6.469,0S0,2.896,0,6.469"/>
</g>
<rect x="154.98" y="61.061" width="255.712" height="84.815"/>
<g>
	<defs>
		<rect id="SVGID_3_" width="414.816" height="150"/>
	</defs>
	<clipPath id="SVGID_4_">
		<use xlink:href="#SVGID_3_"  overflow="visible"/>
	</clipPath>
	
		<rect x="154.98" y="61.061" clip-path="url(#SVGID_4_)" fill="none" stroke="#FFFFFF" stroke-width="8.2493" width="255.712" height="84.815"/>
	<path clip-path="url(#SVGID_4_)" fill="#FFFFFF" d="M368.329,99.192h4.029v10.735h2.495V99.192h4.028v-2.2h-10.551V99.192z
		 M355.192,99.155h2.92c0.935,0,1.65,0.197,2.143,0.591c0.493,0.395,0.739,0.986,0.739,1.773c0,0.801-0.246,1.404-0.739,1.811
		c-0.493,0.406-1.207,0.61-2.143,0.61h-2.92V99.155z M363.637,109.926l-2.847-4.287c0.838-0.357,1.476-0.893,1.913-1.607
		c0.437-0.715,0.656-1.577,0.656-2.586c0-1.417-0.456-2.513-1.367-3.289c-0.913-0.777-2.205-1.165-3.88-1.165h-5.396v12.934h2.476
		v-3.806h2.92c0.209,0,0.363-0.007,0.461-0.019l2.236,3.824H363.637z M337.288,104.605v-7.613h-2.476v7.613
		c0,1.121,0.227,2.098,0.683,2.929c0.456,0.832,1.112,1.469,1.969,1.912c0.855,0.444,1.862,0.666,3.021,0.666
		c1.145,0,2.14-0.222,2.984-0.666c0.844-0.442,1.494-1.08,1.95-1.912c0.456-0.832,0.683-1.808,0.683-2.929v-7.613h-2.475v7.613
		c0,1.023-0.282,1.824-0.841,2.402c-0.561,0.579-1.328,0.869-2.301,0.869c-0.974,0-1.749-0.29-2.329-0.869
		C337.577,106.429,337.288,105.628,337.288,104.605 M322.322,99.043c0.776,0,1.497,0.194,2.161,0.582
		c0.665,0.389,1.193,0.918,1.581,1.59c0.388,0.671,0.582,1.413,0.582,2.226c0,0.813-0.194,1.558-0.582,2.236
		c-0.388,0.677-0.915,1.213-1.581,1.607c-0.664,0.395-1.386,0.591-2.161,0.591c-0.789,0-1.518-0.197-2.189-0.591
		c-0.672-0.395-1.207-0.93-1.607-1.607c-0.401-0.677-0.602-1.423-0.602-2.236c0-0.813,0.198-1.556,0.592-2.226
		c0.393-0.672,0.93-1.201,1.607-1.59C320.801,99.237,321.532,99.043,322.322,99.043 M322.284,96.826
		c-1.281,0-2.448,0.29-3.502,0.869c-1.053,0.579-1.881,1.374-2.485,2.383c-0.603,1.011-0.905,2.132-0.905,3.363
		c0,1.231,0.302,2.355,0.905,3.371c0.604,1.016,1.432,1.82,2.485,2.411c1.053,0.592,2.221,0.887,3.502,0.887
		c1.281,0,2.448-0.295,3.502-0.887c1.053-0.591,1.881-1.395,2.485-2.411c0.603-1.016,0.905-2.14,0.905-3.371
		c0-1.231-0.302-2.353-0.905-3.363c-0.604-1.01-1.432-1.804-2.485-2.383C324.733,97.116,323.565,96.826,322.284,96.826
		 M309.48,100.725l1.441-1.811c-0.628-0.652-1.387-1.164-2.273-1.534c-0.887-0.369-1.792-0.554-2.717-0.554
		c-1.269,0-2.423,0.29-3.464,0.869c-1.041,0.579-1.864,1.374-2.467,2.383c-0.603,1.011-0.905,2.132-0.905,3.363
		c0,1.231,0.295,2.355,0.886,3.371c0.591,1.016,1.404,1.82,2.439,2.411c1.035,0.592,2.175,0.887,3.419,0.887
		c0.923,0,1.835-0.201,2.734-0.6c0.899-0.4,1.687-0.946,2.366-1.635l-1.46-1.626c-0.481,0.481-1.032,0.857-1.654,1.126
		c-0.623,0.272-1.241,0.406-1.857,0.406c-0.801,0-1.534-0.194-2.199-0.582c-0.665-0.388-1.189-0.917-1.571-1.589
		c-0.381-0.671-0.573-1.407-0.573-2.208s0.191-1.537,0.573-2.208c0.383-0.672,0.906-1.198,1.571-1.581
		c0.664-0.381,1.397-0.573,2.199-0.573c0.64,0,1.271,0.149,1.894,0.444C308.485,99.783,309.024,100.195,309.48,100.725
		 M282.613,105.917l-6.67-8.925h-2.346v12.934h2.42v-8.905l6.651,8.905h2.347V96.992h-2.403V105.917z M260.866,99.043
		c0.776,0,1.497,0.194,2.161,0.582c0.665,0.389,1.193,0.918,1.581,1.59c0.388,0.671,0.582,1.413,0.582,2.226
		c0,0.813-0.194,1.558-0.582,2.236c-0.388,0.677-0.915,1.213-1.581,1.607c-0.664,0.395-1.386,0.591-2.161,0.591
		c-0.789,0-1.518-0.197-2.189-0.591c-0.672-0.395-1.207-0.93-1.607-1.607c-0.401-0.677-0.6-1.423-0.6-2.236
		c0-0.813,0.197-1.556,0.591-2.226c0.393-0.672,0.93-1.201,1.607-1.59C259.345,99.237,260.077,99.043,260.866,99.043
		 M260.829,96.826c-1.281,0-2.448,0.29-3.502,0.869c-1.052,0.579-1.881,1.374-2.484,2.383c-0.604,1.011-0.906,2.132-0.906,3.363
		c0,1.231,0.302,2.355,0.906,3.371c0.603,1.016,1.432,1.82,2.484,2.411c1.053,0.592,2.221,0.887,3.502,0.887
		c1.282,0,2.448-0.295,3.502-0.887c1.053-0.591,1.881-1.395,2.485-2.411c0.603-1.016,0.905-2.14,0.905-3.371
		c0-1.231-0.302-2.353-0.905-3.363c-0.604-1.01-1.432-1.804-2.485-2.383C263.277,97.116,262.111,96.826,260.829,96.826
		 M242.851,107.747h-2.956v-8.573h2.864c0.8,0,1.524,0.182,2.171,0.545c0.647,0.364,1.154,0.874,1.524,1.533
		c0.371,0.66,0.555,1.401,0.555,2.228c0,0.825-0.179,1.561-0.537,2.208c-0.357,0.647-0.853,1.152-1.486,1.514
		C244.351,107.565,243.639,107.747,242.851,107.747 M242.795,96.992h-5.376v12.934h5.284c1.318,0,2.495-0.278,3.53-0.832
		c1.033-0.554,1.844-1.32,2.43-2.301c0.584-0.979,0.877-2.091,0.877-3.334c0-1.245-0.29-2.359-0.867-3.345
		c-0.579-0.986-1.38-1.752-2.403-2.301C245.247,97.267,244.089,96.992,242.795,96.992 M228.143,105.917l-6.67-8.925h-2.347v12.934
		h2.42v-8.905l6.653,8.905h2.346V96.992h-2.402V105.917z M206.396,99.043c0.776,0,1.496,0.194,2.161,0.582
		c0.666,0.389,1.192,0.918,1.579,1.59c0.389,0.671,0.583,1.413,0.583,2.226c0,0.813-0.194,1.558-0.583,2.236
		c-0.388,0.677-0.914,1.213-1.579,1.607c-0.666,0.395-1.385,0.591-2.161,0.591c-0.789,0-1.518-0.197-2.189-0.591
		c-0.672-0.395-1.208-0.93-1.609-1.607c-0.4-0.677-0.6-1.423-0.6-2.236c0-0.813,0.198-1.556,0.591-2.226
		c0.395-0.672,0.93-1.201,1.609-1.59C204.874,99.237,205.607,99.043,206.396,99.043 M206.359,96.826
		c-1.282,0-2.448,0.29-3.502,0.869c-1.053,0.579-1.881,1.374-2.485,2.383c-0.603,1.011-0.905,2.132-0.905,3.363
		c0,1.231,0.302,2.355,0.905,3.371c0.604,1.016,1.432,1.82,2.485,2.411c1.053,0.592,2.22,0.887,3.502,0.887
		c1.281,0,2.448-0.295,3.502-0.887c1.053-0.591,1.881-1.395,2.485-2.411c0.603-1.016,0.905-2.14,0.905-3.371
		c0-1.231-0.302-2.353-0.905-3.363c-0.604-1.01-1.432-1.804-2.485-2.383C208.807,97.116,207.639,96.826,206.359,96.826
		 M186.792,109.926h8.057v-2.236h-5.581V96.992h-2.476V109.926z"/>
</g>
<rect x="73.207" y="61.061" fill="#FFFFFF" width="81.18" height="84.815"/>
<g>
	<defs>
		<rect id="SVGID_5_" width="414.816" height="150"/>
	</defs>
	<clipPath id="SVGID_6_">
		<use xlink:href="#SVGID_5_"  overflow="visible"/>
	</clipPath>
	
		<rect x="73.207" y="61.061" clip-path="url(#SVGID_6_)" fill="none" stroke="#FFFFFF" stroke-width="8.2493" width="81.18" height="84.815"/>
	<path clip-path="url(#SVGID_6_)" fill="#2B2B2A" d="M113.742,132.236c-15.856,0-28.71-12.855-28.71-28.712
		s12.855-28.71,28.71-28.71c15.395,0,27.957,12.114,28.679,27.329h-17.338c2.469-2.082,4.04-5.195,4.04-8.678
		c0-6.043-4.725-10.98-10.682-11.327v-0.021h-16.02l2.67,2.67h12.683c4.793,0,8.678,3.886,8.678,8.678
		c0,4.793-3.886,8.678-8.678,8.678H91.738l2.67,2.67h23.365c4.793,0,8.678,3.886,8.678,8.678s-3.886,8.678-8.678,8.678H105.09
		l-2.67,2.67h16.02v-0.021c5.956-0.345,10.682-5.283,10.682-11.327c0-3.482-1.57-6.597-4.04-8.678h17.341
		C141.749,120.072,129.167,132.236,113.742,132.236 M113.797,72.093c-17.329,0-31.376,14.048-31.376,31.376
		c0,17.327,14.048,31.375,31.376,31.375s31.376-14.048,31.376-31.375C145.174,86.141,131.126,72.093,113.797,72.093"/>
</g>
</svg>
