<?xml version="1.0" encoding="utf-8"?>
<!-- Generator: Adobe Illustrator 24.0.3, SVG Export Plug-In . SVG Version: 6.00 Build 0)  -->
<svg version="1.1" id="Layer_1" xmlns="http://www.w3.org/2000/svg" xmlns:xlink="http://www.w3.org/1999/xlink" x="0px" y="0px"
	 width="453px" height="150px" viewBox="0 0 453 150" enable-background="new 0 0 453 150" xml:space="preserve">
<line fill="none" stroke="#FFFFFF" stroke-width="3.5292" x1="373.016" y1="98.513" x2="446.405" y2="142.941"/>
<g>
	<defs>
		<rect id="SVGID_1_" width="453.464" height="150"/>
	</defs>
	<clipPath id="SVGID_2_">
		<use xlink:href="#SVGID_1_"  overflow="visible"/>
	</clipPath>
	<path clip-path="url(#SVGID_2_)" fill="#FFFFFF" d="M446.405,150c3.899,0,7.058-3.16,7.058-7.058c0-3.899-3.16-7.06-7.058-7.06
		c-3.899,0-7.058,3.161-7.058,7.06C439.347,146.84,442.506,150,446.405,150"/>
</g>
<rect x="92.777" y="4.499" width="278.996" height="92.538"/>
<g>
	<defs>
		<rect id="SVGID_3_" width="453.464" height="150"/>
	</defs>
	<clipPath id="SVGID_4_">
		<use xlink:href="#SVGID_3_"  overflow="visible"/>
	</clipPath>
	
		<rect x="92.777" y="4.499" clip-path="url(#SVGID_4_)" fill="none" stroke="#FFFFFF" stroke-width="9.0004" width="278.996" height="92.538"/>
</g>
<polygon fill="#FFFFFF" points="146.439,47.959 158.058,47.959 158.058,45.369 149.404,45.369 149.404,41.475 156.929,41.475 
	156.929,38.885 149.404,38.885 149.404,35.055 157.793,35.055 157.793,32.467 146.439,32.467 "/>
<polygon fill="#FFFFFF" points="165.495,47.959 175.144,47.959 175.144,45.281 168.46,45.281 168.46,32.467 165.495,32.467 "/>
<polygon fill="#FFFFFF" points="181.894,47.959 193.514,47.959 193.514,45.369 184.859,45.369 184.859,41.475 192.384,41.475 
	192.384,38.885 184.859,38.885 184.859,35.055 193.248,35.055 193.248,32.467 181.894,32.467 "/>
<g>
	<defs>
		<rect id="SVGID_5_" width="453.464" height="150"/>
	</defs>
	<clipPath id="SVGID_6_">
		<use xlink:href="#SVGID_5_"  overflow="visible"/>
	</clipPath>
	<path clip-path="url(#SVGID_6_)" fill="#FFFFFF" d="M210.623,37.889c0,0.959-0.299,1.683-0.897,2.17
		c-0.597,0.487-1.457,0.729-2.578,0.729h-3.231v-5.732h3.231c1.122,0,1.981,0.236,2.578,0.709
		C210.324,36.236,210.623,36.945,210.623,37.889 M213.433,37.8c0-1.697-0.535-3.01-1.604-3.939c-1.07-0.93-2.578-1.394-4.526-1.394
		h-6.352v15.492h2.967v-4.56h3.386c1.948,0,3.457-0.49,4.526-1.471C212.898,40.947,213.433,39.571,213.433,37.8"/>
</g>
<polygon fill="#FFFFFF" points="220.316,47.959 223.281,47.959 223.281,41.673 231.006,41.673 231.006,47.959 233.971,47.959 
	233.971,32.467 231.006,32.467 231.006,39.083 223.281,39.083 223.281,32.467 220.316,32.467 "/>
<path fill="#FFFFFF" d="M251.256,42.138h-5.444l2.744-6.508L251.256,42.138z M256.878,47.959l-6.706-15.492h-3.077l-6.795,15.492
	h3.077l1.373-3.276h7.568l1.373,3.276H256.878z"/>
<polygon fill="#FFFFFF" points="273.986,43.156 265.996,32.466 263.186,32.466 263.186,47.959 266.085,47.959 266.085,37.291 
	274.053,47.959 276.863,47.959 276.863,32.466 273.986,32.466 "/>
<polygon fill="#FFFFFF" points="283.37,35.1 288.195,35.1 288.195,47.959 291.184,47.959 291.184,35.1 296.009,35.1 296.009,32.467 
	283.37,32.467 "/>
<g>
	<defs>
		<rect id="SVGID_7_" width="453.464" height="150"/>
	</defs>
	<clipPath id="SVGID_8_">
		<use xlink:href="#SVGID_7_"  overflow="visible"/>
	</clipPath>
	<path clip-path="url(#SVGID_8_)" fill="#FFFFFF" d="M312.734,44.618c-0.944,0.87-1.925,1.306-2.944,1.306
		c-0.767,0-1.409-0.229-1.925-0.687c-0.517-0.457-0.775-1.048-0.775-1.771c0-0.53,0.177-0.999,0.532-1.404
		c0.354-0.406,0.862-0.8,1.526-1.184C310.034,41.88,311.229,43.126,312.734,44.618 M309.879,38.442
		c-0.693-0.974-1.039-1.822-1.039-2.545c0-0.516,0.172-0.944,0.519-1.284c0.348-0.339,0.801-0.509,1.362-0.509
		c0.516,0,0.932,0.143,1.249,0.432c0.317,0.287,0.477,0.668,0.477,1.139c0,0.575-0.222,1.074-0.664,1.494
		C311.34,37.59,310.705,38.014,309.879,38.442 M315.656,44.573c0.619-0.841,1.136-1.8,1.549-2.877l-1.881-1.394
		c-0.37,1.062-0.797,1.962-1.284,2.7c-1.151-1.136-2.154-2.177-3.01-3.12c1.181-0.59,2.096-1.199,2.745-1.826
		c0.649-0.628,0.974-1.42,0.974-2.38c0-0.649-0.17-1.228-0.509-1.738c-0.341-0.509-0.819-0.903-1.439-1.184
		c-0.62-0.28-1.32-0.42-2.103-0.42c-1.254,0-2.257,0.329-3.009,0.986c-0.754,0.657-1.129,1.516-1.129,2.578
		c0,0.546,0.113,1.103,0.342,1.671c0.229,0.568,0.587,1.191,1.074,1.87c-1.017,0.546-1.819,1.148-2.402,1.804
		c-0.583,0.657-0.874,1.471-0.874,2.445c0,0.841,0.217,1.597,0.652,2.268c0.436,0.673,1.033,1.196,1.793,1.573
		c0.761,0.375,1.606,0.564,2.535,0.564c1.681,0,3.216-0.649,4.603-1.948l2.346,2.325l1.483-1.506L315.656,44.573z"/>
	<path clip-path="url(#SVGID_8_)" fill="#FFFFFF" d="M191.939,57.96l1.726-2.17c-0.752-0.781-1.66-1.394-2.722-1.836
		c-1.062-0.442-2.146-0.664-3.254-0.664c-1.52,0-2.903,0.346-4.149,1.041c-1.248,0.693-2.232,1.645-2.955,2.855
		c-0.723,1.209-1.084,2.552-1.084,4.028s0.354,2.822,1.062,4.039s1.681,2.18,2.922,2.887c1.239,0.709,2.603,1.062,4.094,1.062
		c1.106,0,2.197-0.239,3.276-0.719c1.077-0.48,2.02-1.132,2.832-1.958l-1.748-1.948c-0.575,0.575-1.236,1.026-1.981,1.349
		c-0.745,0.325-1.486,0.487-2.223,0.487c-0.959,0-1.838-0.232-2.635-0.697c-0.796-0.464-1.423-1.099-1.881-1.903
		c-0.457-0.804-0.686-1.686-0.686-2.645c0-0.958,0.229-1.841,0.686-2.645c0.458-0.803,1.086-1.435,1.881-1.891
		c0.797-0.458,1.675-0.687,2.635-0.687c0.767,0,1.523,0.178,2.268,0.532C190.748,56.831,191.393,57.326,191.939,57.96"/>
</g>
<path fill="#FFFFFF" d="M209.446,63.162h-5.444l2.744-6.508L209.446,63.162z M215.068,68.982l-6.706-15.492h-3.077l-6.795,15.492
	h3.077l1.373-3.276h7.568l1.373,3.276H215.068z"/>
<g>
	<defs>
		<rect id="SVGID_9_" width="453.464" height="150"/>
	</defs>
	<clipPath id="SVGID_10_">
		<use xlink:href="#SVGID_9_"  overflow="visible"/>
	</clipPath>
	<path clip-path="url(#SVGID_10_)" fill="#FFFFFF" d="M231.003,57.473l1.196-2.59c-0.768-0.501-1.642-0.9-2.623-1.194
		c-0.981-0.296-1.974-0.444-2.977-0.444c-1.151,0-2.165,0.186-3.044,0.554c-0.877,0.37-1.557,0.89-2.035,1.561
		c-0.48,0.671-0.72,1.457-0.72,2.357c0,0.974,0.236,1.76,0.709,2.357c0.472,0.599,1.041,1.045,1.704,1.339
		c0.664,0.296,1.519,0.597,2.567,0.907c0.767,0.222,1.373,0.42,1.815,0.599c0.443,0.177,0.809,0.409,1.096,0.697
		c0.288,0.287,0.432,0.652,0.432,1.094c0,0.546-0.236,0.978-0.709,1.296c-0.472,0.317-1.12,0.475-1.946,0.475
		c-0.842,0-1.749-0.206-2.723-0.619c-0.974-0.413-1.851-0.981-2.633-1.704l-1.239,2.523c0.855,0.752,1.86,1.354,3.01,1.803
		c1.151,0.451,2.331,0.675,3.541,0.675c1.151,0,2.173-0.184,3.065-0.554c0.893-0.368,1.593-0.903,2.103-1.604
		c0.509-0.7,0.764-1.523,0.764-2.468c0-0.988-0.236-1.784-0.709-2.39c-0.473-0.604-1.044-1.062-1.716-1.373
		c-0.671-0.309-1.531-0.619-2.578-0.929c-0.752-0.222-1.346-0.425-1.781-0.609c-0.435-0.184-0.797-0.42-1.084-0.709
		c-0.288-0.287-0.432-0.645-0.432-1.073c0-0.472,0.206-0.842,0.62-1.107c0.412-0.265,0.973-0.399,1.681-0.399
		c0.635,0,1.368,0.133,2.203,0.399C229.391,56.61,230.206,56.986,231.003,57.473"/>
</g>
<polygon fill="#FFFFFF" points="237.864,56.123 242.689,56.123 242.689,68.982 245.678,68.982 245.678,56.123 250.502,56.123 
	250.502,53.49 237.864,53.49 "/>
<polygon fill="#FFFFFF" points="257.031,68.982 266.68,68.982 266.68,66.304 259.996,66.304 259.996,53.49 257.031,53.49 "/>
<polygon fill="#FFFFFF" points="273.43,68.982 285.05,68.982 285.05,66.392 276.396,66.392 276.396,62.498 283.921,62.498 
	283.921,59.908 276.396,59.908 276.396,56.079 284.785,56.079 284.785,53.49 273.43,53.49 "/>
<rect x="4.5" y="4.499" fill="#FFFFFF" width="88.572" height="92.538"/>
<g>
	<defs>
		<rect id="SVGID_11_" width="453.464" height="150"/>
	</defs>
	<clipPath id="SVGID_12_">
		<use xlink:href="#SVGID_11_"  overflow="visible"/>
	</clipPath>
	
		<rect x="4.5" y="4.499" clip-path="url(#SVGID_12_)" fill="none" stroke="#FFFFFF" stroke-width="9.0004" width="88.572" height="92.538"/>
	<path clip-path="url(#SVGID_12_)" fill="#2B2B2A" d="M48.725,82.153c-17.299,0-31.325-14.024-31.325-31.325
		s14.025-31.325,31.325-31.325c16.796,0,30.503,13.217,31.29,29.817H61.098c2.694-2.271,4.407-5.668,4.407-9.469
		c0-6.593-5.155-11.98-11.654-12.359v-0.023H36.372l2.913,2.913h13.838c5.229,0,9.469,4.239,9.469,9.469
		c0,5.229-4.239,9.469-9.469,9.469H24.718l2.913,2.913h25.493c5.229,0,9.469,4.239,9.469,9.469c0,5.229-4.239,9.469-9.469,9.469
		H39.286l-2.913,2.913h17.479v-0.023c6.499-0.377,11.654-5.764,11.654-12.359c0-3.799-1.713-7.197-4.407-9.469h18.92
		C79.283,68.883,65.555,82.153,48.725,82.153 M48.786,16.536c-18.907,0-34.234,15.327-34.234,34.234
		c0,18.905,15.327,34.232,34.234,34.232S83.02,69.675,83.02,50.769C83.02,31.863,67.693,16.536,48.786,16.536"/>
</g>
</svg>
