<?xml version="1.0" encoding="utf-8"?>
<!-- Generator: Adobe Illustrator 24.0.3, SVG Export Plug-In . SVG Version: 6.00 Build 0)  -->
<svg version="1.1" id="Layer_1" xmlns="http://www.w3.org/2000/svg" xmlns:xlink="http://www.w3.org/1999/xlink" x="0px" y="0px"
	 width="149.95px" height="8.424px" viewBox="0 0 149.95 8.424" enable-background="new 0 0 149.95 8.424" xml:space="preserve">
<g>
	<defs>
		<rect id="SVGID_1_" width="150" height="8.481"/>
	</defs>
	<clipPath id="SVGID_2_">
		<use xlink:href="#SVGID_1_"  overflow="visible"/>
	</clipPath>
	<path clip-path="url(#SVGID_2_)" fill="#686868" d="M144.89,8.246c0.064-0.342,0.163-0.607,0.296-0.796
		c0.599,0.688,1.347,1.031,2.244,1.031c0.78,0,1.404-0.219,1.87-0.658c0.467-0.438,0.7-1.007,0.7-1.707
		c0-0.442-0.096-0.832-0.29-1.17c-0.193-0.338-0.449-0.602-0.769-0.793c-0.32-0.191-0.831-0.443-1.535-0.757
		c-0.736-0.33-1.245-0.627-1.526-0.893c-0.286-0.261-0.428-0.581-0.428-0.959c0-0.314,0.114-0.602,0.341-0.866
		c0.227-0.263,0.584-0.395,1.071-0.395c0.511,0,0.96,0.179,1.348,0.537c0.388,0.358,0.659,0.849,0.811,1.472h0.265V0.151h-0.265
		c-0.024,0.257-0.129,0.497-0.314,0.718c-0.322-0.354-0.636-0.587-0.941-0.7C147.462,0.056,147.137,0,146.791,0
		c-0.619,0-1.131,0.194-1.535,0.582c-0.404,0.388-0.606,0.874-0.606,1.457c0,0.382,0.093,0.742,0.28,1.08
		c0.187,0.338,0.447,0.612,0.781,0.823c0.334,0.211,0.828,0.458,1.484,0.739c0.736,0.314,1.243,0.607,1.52,0.881
		c0.277,0.277,0.416,0.621,0.416,1.031c0,0.406-0.158,0.773-0.474,1.101c-0.316,0.328-0.761,0.492-1.336,0.492
		c-1.279,0-2.089-0.857-2.431-2.57h-0.302v2.63H144.89z M136.696,5.924c-0.181,0.648-0.381,1.12-0.6,1.418
		c-0.219,0.298-0.451,0.491-0.694,0.579c-0.243,0.089-0.616,0.133-1.119,0.133h-0.621c-0.47,0-0.777-0.041-0.92-0.124
		c-0.143-0.082-0.23-0.198-0.263-0.347c-0.032-0.149-0.048-0.519-0.048-1.11V2.19c0-0.679,0.021-1.11,0.063-1.291
		c0.042-0.181,0.126-0.305,0.25-0.371c0.125-0.067,0.388-0.1,0.79-0.1h0.362V0.151h-3.927v0.277h0.181
		c0.414,0,0.683,0.036,0.805,0.109c0.123,0.072,0.203,0.203,0.241,0.392c0.038,0.189,0.057,0.609,0.057,1.261v4.012
		c0,0.684-0.019,1.119-0.057,1.306c-0.038,0.187-0.125,0.325-0.259,0.413c-0.135,0.089-0.377,0.133-0.727,0.133h-0.241V8.33h6.949
		l0.06-2.407H136.696z M121.562,7.206c-0.251,0.344-0.516,0.571-0.793,0.682c-0.277,0.111-0.631,0.166-1.062,0.166h-0.609
		c-0.547,0-0.883-0.085-1.007-0.256c-0.125-0.171-0.187-0.741-0.187-1.71V4.15h0.899c0.35,0,0.598,0.023,0.745,0.069
		c0.147,0.046,0.259,0.147,0.335,0.302c0.076,0.155,0.115,0.46,0.115,0.914h0.284V2.636h-0.284c0,0.402-0.025,0.673-0.075,0.811
		c-0.05,0.139-0.155,0.242-0.314,0.311c-0.159,0.068-0.437,0.103-0.835,0.103h-0.869V0.428h1.134c0.571,0,0.985,0.031,1.243,0.093
		c0.257,0.062,0.479,0.213,0.667,0.452c0.187,0.239,0.345,0.645,0.474,1.215h0.283l-0.193-2.039h-5.845v0.277
		c0.394,0,0.652,0.039,0.775,0.118c0.123,0.078,0.201,0.216,0.235,0.413c0.034,0.197,0.051,0.607,0.051,1.23v4.012
		c0,0.684-0.016,1.109-0.048,1.276c-0.032,0.167-0.108,0.305-0.226,0.413c-0.119,0.108-0.381,0.163-0.787,0.163h-0.169V8.33h6.774
		l0.175-2.546h-0.29C122.011,6.388,121.813,6.862,121.562,7.206 M100.645,0.959c0.159-0.253,0.329-0.405,0.51-0.455
		c0.181-0.05,0.535-0.076,1.062-0.076h1.213v5.773c0,0.684-0.019,1.119-0.057,1.306c-0.038,0.187-0.125,0.325-0.26,0.413
		c-0.135,0.089-0.377,0.133-0.727,0.133h-0.422V8.33h4.078V8.053h-0.398c-0.366,0-0.615-0.048-0.748-0.145
		c-0.133-0.096-0.214-0.245-0.244-0.446c-0.03-0.201-0.045-0.621-0.045-1.261V0.428h1.315c0.447,0,0.762,0.027,0.947,0.081
		c0.185,0.054,0.358,0.201,0.519,0.44c0.161,0.239,0.287,0.628,0.38,1.167h0.259l-0.042-1.967h-7.939l-0.042,1.967h0.277
		C100.365,1.598,100.486,1.212,100.645,0.959 M85.876,1.294c0.525-0.661,1.28-0.992,2.265-0.992c1.002,0,1.765,0.339,2.292,1.017
		c0.527,0.678,0.79,1.652,0.79,2.923c0,1.307-0.268,2.29-0.802,2.95C89.886,7.85,89.158,8.18,88.237,8.18
		c-1.05,0-1.837-0.33-2.362-0.989c-0.525-0.66-0.787-1.647-0.787-2.962C85.088,2.934,85.351,1.955,85.876,1.294 M84.956,7.305
		c0.832,0.784,1.898,1.176,3.197,1.176c1.335,0,2.412-0.392,3.23-1.176c0.818-0.784,1.228-1.81,1.228-3.076
		c0-1.307-0.427-2.339-1.282-3.095C90.474,0.378,89.41,0,88.135,0c-1.263,0-2.316,0.382-3.161,1.146
		c-0.844,0.764-1.267,1.778-1.267,3.04C83.707,5.481,84.123,6.521,84.956,7.305 M73.456,6.201c0,0.684-0.018,1.119-0.054,1.306
		c-0.036,0.187-0.122,0.325-0.256,0.413c-0.135,0.089-0.375,0.133-0.721,0.133h-0.284V8.33h3.722V8.053h-0.187
		c-0.366,0-0.615-0.048-0.748-0.145c-0.133-0.096-0.214-0.244-0.244-0.443c-0.03-0.199-0.045-0.62-0.045-1.264V2.19
		c0-0.679,0.021-1.11,0.063-1.291c0.042-0.181,0.126-0.305,0.251-0.371c0.124-0.067,0.388-0.1,0.79-0.1h0.121V0.151h-3.722v0.277
		h0.217c0.414,0,0.683,0.036,0.806,0.109c0.123,0.072,0.202,0.203,0.238,0.392c0.036,0.189,0.054,0.609,0.054,1.261v1.623h-4.271
		V2.19c0-0.679,0.021-1.11,0.063-1.291c0.042-0.181,0.126-0.305,0.251-0.371c0.124-0.067,0.386-0.1,0.784-0.1h0.151V0.151h-3.68
		v0.277h0.151c0.414,0,0.683,0.036,0.806,0.109c0.123,0.072,0.203,0.203,0.241,0.392s0.057,0.609,0.057,1.261v4.012
		c0,0.684-0.019,1.119-0.057,1.306s-0.125,0.325-0.259,0.413c-0.135,0.089-0.377,0.133-0.727,0.133h-0.211V8.33h3.68V8.053h-0.211
		c-0.366,0-0.614-0.048-0.745-0.145c-0.131-0.096-0.212-0.244-0.244-0.443c-0.032-0.199-0.048-0.62-0.048-1.264V4.229h4.271V6.201z
		 M42.026,0.959c0.159-0.253,0.329-0.405,0.51-0.455c0.181-0.05,0.535-0.076,1.062-0.076h1.213v5.773
		c0,0.684-0.019,1.119-0.057,1.306c-0.038,0.187-0.125,0.325-0.26,0.413c-0.135,0.089-0.377,0.133-0.727,0.133h-0.422V8.33h4.078
		V8.053h-0.398c-0.366,0-0.615-0.048-0.748-0.145c-0.133-0.096-0.214-0.245-0.244-0.446c-0.03-0.201-0.045-0.621-0.045-1.261V0.428
		h1.315c0.447,0,0.762,0.027,0.947,0.081c0.185,0.054,0.358,0.201,0.519,0.44c0.161,0.239,0.287,0.628,0.38,1.167h0.259
		l-0.042-1.967h-7.939l-0.042,1.967h0.277C41.745,1.598,41.867,1.212,42.026,0.959 M30.396,0.428c0.414,0,0.684,0.036,0.808,0.109
		s0.205,0.203,0.241,0.392C31.482,1.118,31.5,1.538,31.5,2.19v4.012c0,0.684-0.018,1.119-0.054,1.306
		c-0.036,0.187-0.122,0.325-0.256,0.413c-0.135,0.089-0.377,0.133-0.727,0.133h-0.241V8.33h3.74V8.053H33.72
		c-0.37,0-0.62-0.048-0.751-0.145c-0.131-0.096-0.211-0.244-0.241-0.443c-0.03-0.199-0.045-0.62-0.045-1.264V2.19
		c0-0.679,0.021-1.11,0.063-1.291c0.042-0.181,0.126-0.305,0.25-0.371c0.125-0.067,0.388-0.1,0.79-0.1h0.175V0.151h-3.74v0.277
		H30.396z M16.899,0.368c0.193-0.016,0.364-0.024,0.513-0.024c0.965,0,1.592,0.173,1.879,0.519c0.288,0.346,0.431,0.807,0.431,1.382
		c0,0.33-0.042,0.607-0.127,0.832c-0.084,0.225-0.2,0.407-0.347,0.546c-0.147,0.139-0.339,0.244-0.576,0.316
		c-0.237,0.073-0.517,0.117-0.838,0.133c-0.322,0.016-0.634,0.028-0.935,0.036V0.368z M23.082,8.053
		C22.6,8.037,22.181,7.9,21.827,7.643c-0.354-0.257-0.84-0.802-1.46-1.635c-0.76-1.026-1.311-1.621-1.653-1.786
		c0.764-0.092,1.343-0.328,1.737-0.706c0.394-0.378,0.591-0.834,0.591-1.369c0-0.458-0.151-0.853-0.452-1.182
		c-0.302-0.33-0.697-0.567-1.186-0.712c-0.488-0.145-1.123-0.217-1.903-0.217c-0.458,0-1.078,0.018-1.858,0.054l-1.17,0.06v0.277
		h0.139c0.414,0,0.683,0.036,0.808,0.109c0.125,0.072,0.205,0.203,0.241,0.392c0.036,0.189,0.054,0.609,0.054,1.261v4.012
		c0,0.684-0.018,1.119-0.054,1.306c-0.036,0.187-0.122,0.325-0.256,0.413c-0.135,0.089-0.377,0.133-0.727,0.133h-0.265V8.33h3.915
		V8.053h-0.392c-0.37,0-0.62-0.048-0.751-0.145c-0.131-0.096-0.211-0.244-0.241-0.443c-0.03-0.199-0.045-0.62-0.045-1.264V4.385
		h0.326c0.221,0,0.384,0.037,0.488,0.112c0.104,0.075,0.296,0.282,0.573,0.621c0.277,0.34,0.545,0.695,0.802,1.065
		c0.804,1.158,1.401,1.874,1.792,2.147h2.202V8.053z M2.992,4.096c0.917,0,1.557,0.16,1.921,0.479
		c0.364,0.32,0.546,0.818,0.546,1.493c0,0.66-0.161,1.154-0.483,1.484c-0.322,0.33-0.804,0.495-1.448,0.495
		c-0.362,0-0.604-0.054-0.727-0.163C2.679,7.775,2.604,7.617,2.576,7.408C2.548,7.199,2.534,6.706,2.534,5.93V4.108
		C2.694,4.1,2.847,4.096,2.992,4.096 M2.534,0.38c0.165-0.012,0.326-0.018,0.483-0.018c0.603,0,1.029,0.063,1.279,0.19
		c0.249,0.127,0.436,0.307,0.561,0.54c0.124,0.233,0.187,0.563,0.187,0.989c0,0.611-0.159,1.054-0.477,1.327
		c-0.318,0.273-0.911,0.41-1.78,0.41c-0.068,0-0.153-0.002-0.253-0.006V0.38z M5.746,3.275C6.13,2.954,6.322,2.527,6.322,1.997
		c0-1.287-1.118-1.93-3.354-1.93L1.436,0.115L0.09,0.151v0.277h0.157c0.414,0,0.682,0.036,0.805,0.109
		c0.123,0.072,0.203,0.205,0.241,0.398C1.332,1.128,1.351,1.556,1.351,2.22v3.981c0,0.684-0.018,1.119-0.054,1.306
		C1.261,7.694,1.175,7.832,1.041,7.92C0.906,8.009,0.664,8.053,0.314,8.053H0V8.33h3.209c0.8,0,1.439-0.057,1.915-0.172
		c0.476-0.115,0.867-0.358,1.173-0.73c0.306-0.372,0.458-0.815,0.458-1.33c0-0.591-0.225-1.084-0.675-1.478
		C5.63,4.227,4.941,3.996,4.011,3.927C4.784,3.814,5.362,3.597,5.746,3.275"/>
</g>
</svg>
