<?xml version="1.0" encoding="utf-8"?>
<!-- Generator: Adobe Illustrator 25.2.1, SVG Export Plug-In . SVG Version: 6.00 Build 0)  -->
<svg version="1.1" id="Layer_1" xmlns="http://www.w3.org/2000/svg" xmlns:xlink="http://www.w3.org/1999/xlink" x="0px" y="0px"
	 viewBox="0 0 24 24" style="enable-background:new 0 0 24 24;" xml:space="preserve">
<style type="text/css">
	.st0{fill:#005AE0;}
</style>
<g>
	<path class="st0" d="M3.1,7v10c0,0.9,0.7,1.7,1.7,1.7h6.9v-1.1H4.8c-0.3,0-0.6-0.2-0.6-0.6V7.1l7.5,5.3c0.2,0.1,0.5,0.1,0.6,0
		l7.5-5.3v5.4h1.1V7c0-0.9-0.7-1.7-1.7-1.7H4.8C3.8,5.3,3.1,6.1,3.1,7z M5.2,6.4h13.7L12,11.3L5.2,6.4z"/>
	<rect x="16" y="13.8" class="st0" width="4.9" height="1"/>
	<path class="st0" d="M14.1,15.3L14.1,15.3c-0.6,0-1-0.5-1-1v0c0-0.6,0.5-1,1-1h0c0.6,0,1,0.5,1,1v0C15.2,14.9,14.7,15.3,14.1,15.3z
		"/>
	<rect x="16" y="17.1" class="st0" width="4.9" height="1"/>
	<path class="st0" d="M14.1,18.7L14.1,18.7c-0.6,0-1-0.5-1-1v0c0-0.6,0.5-1,1-1h0c0.6,0,1,0.5,1,1v0C15.2,18.2,14.7,18.7,14.1,18.7z
		"/>
</g>
</svg>
