<?xml version="1.0" encoding="utf-8"?>
<!-- Generator: Adobe Illustrator 25.2.1, SVG Export Plug-In . SVG Version: 6.00 Build 0)  -->
<svg version="1.1" id="Capa_1" xmlns="http://www.w3.org/2000/svg" xmlns:xlink="http://www.w3.org/1999/xlink" x="0px" y="0px"
	 viewBox="0 0 512 512" style="enable-background:new 0 0 512 512;" xml:space="preserve">
<style type="text/css">
	.st0{fill:#005AE0;}
</style>
<g>
	<g>
		<path class="st0" d="M80,16v368H32c-6.5,0-12.3,3.9-14.8,9.9s-1.1,12.8,3.5,17.4l96,96c6.2,6.2,16.4,6.2,22.6,0l96-96
			c4.6-4.6,6-11.5,3.5-17.4s-8.3-9.9-14.8-9.9h-48V16c0-8.8-7.2-16-16-16L96,0C87.1,0,80,7.2,80,16z"/>
	</g>
</g>
<g>
	<g>
		<path class="st0" d="M372.7,4.7l-96,96c-4.6,4.6-6,11.5-3.5,17.4s8.3,9.9,14.8,9.9h48v368c0,8.8,7.2,16,16,16h64
			c8.8,0,16-7.2,16-16V128h48c6.5,0,12.3-3.9,14.8-9.9c2.5-6,1.1-12.9-3.5-17.4l-96-96C389.1-1.6,378.9-1.6,372.7,4.7z"/>
	</g>
</g>
</svg>
