<?xml version="1.0" encoding="utf-8"?>
<!-- Generator: Adobe Illustrator 24.2.1, SVG Export Plug-In . SVG Version: 6.00 Build 0)  -->
<svg version="1.0" id="Layer_1" xmlns="http://www.w3.org/2000/svg" xmlns:xlink="http://www.w3.org/1999/xlink" x="0px" y="0px"
	 viewBox="0 0 164.3 152" style="enable-background:new 0 0 164.3 152;" xml:space="preserve">
<style type="text/css">
	.st0{fill:#FFFFFF;stroke:#324C5E;stroke-width:14;stroke-linecap:round;stroke-linejoin:round;stroke-miterlimit:22.9256;}
	.st1{fill:#FFFFFF;}
</style>
<polyline class="st0" points="214,-248.5 214,-172 162.9,-172 162.9,-210.8 -79,-210.8 -79,-172 -130,-172 -130,-248.5 "/>
<line class="st0" x1="-76.7" y1="-490.5" x2="160.7" y2="-490.5"/>
<path class="st0" d="M160.7-490.5c12.8,0,23.2,10.5,23.2,23.2"/>
<line class="st0" x1="183.8" y1="-467.3" x2="183.8" y2="-368.6"/>
<path class="st0" d="M152.9-372.5v-15c0-14.1-11.5-25.6-25.6-25.6h-58c-14,0-25.6,11.6-25.6,25.6v9.8"/>
<path class="st0" d="M40.2-377.7v-9.8c0-14.1-11.6-25.6-25.6-25.6h-58c-14.1,0-25.6,11.5-25.6,25.6v15"/>
<line class="st0" x1="-99.9" y1="-368.6" x2="-99.9" y2="-467.3"/>
<path class="st0" d="M-99.9-467.3c0-12.8,10.4-23.2,23.2-23.2"/>
<path class="st0" d="M-100.3-361.8c89.8-14.7,228.1-13.1,285.1,0l29.6,107.9h-345L-100.3-361.8L-100.3-361.8z"/>
<g>
	<path class="st1" d="M160.8,152.1h-23.4c-1.8,0-3.2-1.4-3.2-3.2v-14.5H30v14.5c0,1.8-1.4,3.2-3.2,3.2H3.4c-1.8,0-3.2-1.4-3.2-3.2
		v-35c0-1.8,1.4-3.2,3.2-3.2s3.2,1.4,3.2,3.2v31.8h16.9v-14.5c0-1.8,1.4-3.2,3.2-3.2h110.7c1.8,0,3.2,1.4,3.2,3.2v14.5h16.9v-31.8
		c0-1.8,1.4-3.2,3.2-3.2s3.2,1.4,3.2,3.2v35C164,150.7,162.6,152.1,160.8,152.1z"/>
</g>
<g>
	<path class="st1" d="M136.4,6.4H27.8c-1.8,0-3.2-1.4-3.2-3.2S26.1,0,27.8,0h108.6c1.8,0,3.2,1.4,3.2,3.2S138.2,6.4,136.4,6.4z"/>
</g>
<g>
	<path class="st1" d="M147,17c-1.8,0-3.2-1.4-3.2-3.2c0-4.1-3.3-7.4-7.4-7.4c-1.8,0-3.2-1.4-3.2-3.2s1.4-3.2,3.2-3.2
		c7.6,0,13.8,6.2,13.8,13.8C150.2,15.6,148.8,17,147,17z"/>
</g>
<g>
	<path class="st1" d="M147,62.2c-1.8,0-3.2-1.4-3.2-3.2V13.8c0-1.8,1.4-3.2,3.2-3.2s3.2,1.4,3.2,3.2V59
		C150.2,60.7,148.8,62.2,147,62.2z"/>
</g>
<g>
	<path class="st1" d="M132.9,60.4c-1.8,0-3.2-1.4-3.2-3.2v-6.8c0-4.7-3.8-8.5-8.5-8.5H94.6c-4.7,0-8.5,3.8-8.5,8.5v4.5
		c0,1.8-1.4,3.2-3.2,3.2c-1.8,0-3.2-1.4-3.2-3.2v-4.5c0-8.2,6.7-14.9,14.9-14.9h26.5c8.2,0,14.9,6.7,14.9,14.9v6.8
		C136.1,58.9,134.6,60.4,132.9,60.4z"/>
</g>
<g>
	<path class="st1" d="M31.4,60.4c-1.8,0-3.2-1.4-3.2-3.2v-6.8c0-8.2,6.7-14.9,14.9-14.9h26.5c8.2,0,14.9,6.7,14.9,14.9v4.5
		c0,1.8-1.4,3.2-3.2,3.2c-1.8,0-3.2-1.4-3.2-3.2v-4.5c0-4.7-3.8-8.5-8.5-8.5H43.1c-4.7,0-8.5,3.8-8.5,8.5v6.8
		C34.6,58.9,33.1,60.4,31.4,60.4z"/>
</g>
<g>
	<path class="st1" d="M17.2,62.2c-1.8,0-3.2-1.4-3.2-3.2V13.8c0-1.8,1.4-3.2,3.2-3.2s3.2,1.4,3.2,3.2V59
		C20.4,60.7,19,62.2,17.2,62.2z"/>
</g>
<g>
	<path class="st1" d="M17.2,17c-1.8,0-3.2-1.4-3.2-3.2C14,6.2,20.2,0,27.8,0C29.6,0,31,1.4,31,3.2s-1.4,3.2-3.2,3.2
		c-4.1,0-7.4,3.3-7.4,7.4C20.4,15.6,19,17,17.2,17z"/>
</g>
<g>
	<path class="st1" d="M161.1,114.7H3.2c-1,0-1.9-0.5-2.6-1.3c-0.6-0.8-0.8-1.8-0.5-2.8L14,61.2c0.3-1.2,1.3-2.1,2.6-2.3
		c43.2-7.1,106.3-5.8,131.7,0c1.1,0.3,2.1,1.1,2.4,2.3l13.5,49.4c0.3,1,0.1,2-0.5,2.8C163,114.2,162.1,114.7,161.1,114.7z
		 M7.4,108.2h149.4l-11.9-43.4c-12.7-2.6-33.7-4.2-57-4.3c-24.8-0.1-49.6,1.5-68.3,4.4L7.4,108.2z"/>
</g>
</svg>
