<?xml version="1.0" encoding="utf-8"?>
<!-- Generator: Adobe Illustrator 24.0.3, SVG Export Plug-In . SVG Version: 6.00 Build 0)  -->
<svg version="1.1" id="Layer_1" xmlns="http://www.w3.org/2000/svg" xmlns:xlink="http://www.w3.org/1999/xlink" x="0px" y="0px"
	 width="154px" height="152px" viewBox="0 0 154 152" enable-background="new 0 0 154 152" xml:space="preserve">
<g>
	<defs>
		<rect id="SVGID_1_" width="154.213" height="152"/>
	</defs>
	<clipPath id="SVGID_2_">
		<use xlink:href="#SVGID_1_"  overflow="visible"/>
	</clipPath>
	<path clip-path="url(#SVGID_2_)" fill="#FFFFFF" d="M37.026,74.362c-9.765-19.311-9.877-38.309-9.877-39.108v-1.699h18.686v3.397
		H30.644c0.266,5.05,1.703,20.563,9.455,35.892L37.026,74.362z"/>
	<path clip-path="url(#SVGID_2_)" fill="#FFFFFF" d="M123.406,152H62.803v-3.398h58.885v-15.777H72.5v-3.398h50.906
		c0.95,0,1.718,0.76,1.718,1.7V150.3C125.123,151.24,124.355,152,123.406,152"/>
	<path clip-path="url(#SVGID_2_)" fill="#FFFFFF" d="M125.123,131.126h-3.435v-26.365c0.001-0.313,0.059-31.123-4.814-54.826
		c-2.056-10.002-5.973-18.215-8.915-22.572H51.596c-5.509,8.562-9.805,31.255-11.844,48.477l-3.411-0.395
		c2.249-18.993,6.83-42.304,12.944-50.768l0.514-0.71h59.947l0.514,0.712c3.332,4.613,7.703,13.492,9.982,24.579
		c4.945,24.05,4.884,55.198,4.883,55.509V131.126z"/>
</g>
<polygon fill="#FFFFFF" points="110.578,25.666 107.144,25.666 107.144,17.776 52.4,17.776 52.4,25.666 48.965,25.666 
	48.965,14.381 110.578,14.381 "/>
<g>
	<defs>
		<rect id="SVGID_3_" width="154.213" height="152"/>
	</defs>
	<clipPath id="SVGID_4_">
		<use xlink:href="#SVGID_3_"  overflow="visible"/>
	</clipPath>
	<path clip-path="url(#SVGID_4_)" fill="#FFFFFF" d="M103.163,7.967c-0.082-0.046-8.302-4.571-20.967-4.571h-4.848
		c-12.665,0-20.885,4.525-20.967,4.571l-1.701-2.95c0.362-0.205,9.037-5.017,22.669-5.017h4.848c13.632,0,22.307,4.812,22.67,5.017
		L103.163,7.967z"/>
	<path clip-path="url(#SVGID_4_)" fill="#FFFFFF" d="M123.404,116.048c-0.396,0-0.793-0.135-1.117-0.41
		c-0.72-0.611-0.804-1.682-0.186-2.394c16.09-18.562,16.555-48.296,16.555-51.626c0-16.633-10.685-17.476-12.827-17.476
		c-3.063,0-5.555,2.463-5.555,5.492c0,0.938-0.768,1.698-1.718,1.698c-0.95,0-1.717-0.76-1.717-1.698
		c0-4.901,4.032-8.889,8.989-8.889c1.664,0,16.262,0.585,16.262,20.873c0,3.458-0.488,34.346-17.382,53.835
		C124.371,115.846,123.889,116.048,123.404,116.048"/>
	<path clip-path="url(#SVGID_4_)" fill="#FFFFFF" d="M123.268,132.825c-0.469,0-0.935-0.189-1.273-0.559
		c-0.637-0.695-0.582-1.77,0.121-2.399c26.447-23.65,28.662-51.341,28.662-75.439c0-25.759-20.781-27.064-24.947-27.064h-16.969
		c-0.949,0-1.717-0.76-1.717-1.698c0-0.939,0.768-1.699,1.717-1.699h16.969c2.904,0,28.382,0.855,28.382,30.46
		c0,24.828-2.302,53.376-29.791,77.957C124.092,132.68,123.681,132.825,123.268,132.825"/>
	<path clip-path="url(#SVGID_4_)" fill="#FFFFFF" d="M79.772,63.316h-9.697c-0.949,0-1.717-0.76-1.717-1.698
		c0-0.939,0.768-1.699,1.717-1.699h9.697c0.95,0,1.718,0.76,1.718,1.699C81.49,62.557,80.721,63.316,79.772,63.316"/>
	<path clip-path="url(#SVGID_4_)" fill="#FFFFFF" d="M79.772,75.301h-9.697c-0.949,0-1.717-0.76-1.717-1.698
		c0-0.939,0.768-1.699,1.717-1.699h9.697c0.95,0,1.718,0.76,1.718,1.699C81.49,74.541,80.721,75.301,79.772,75.301"/>
	<path clip-path="url(#SVGID_4_)" fill="#FFFFFF" d="M79.772,87.286h-9.697c-0.949,0-1.717-0.76-1.717-1.7
		c0-0.938,0.768-1.698,1.717-1.698h9.697c0.95,0,1.718,0.76,1.718,1.698C81.49,86.525,80.721,87.286,79.772,87.286"/>
	<path clip-path="url(#SVGID_4_)" fill="#FFFFFF" d="M79.772,99.27h-9.697c-0.949,0-1.717-0.76-1.717-1.7
		c0-0.938,0.768-1.699,1.717-1.699h9.697c0.95,0,1.718,0.76,1.718,1.699C81.49,98.509,80.721,99.27,79.772,99.27"/>
	<path clip-path="url(#SVGID_4_)" fill="#FFFFFF" d="M79.765,48.935c-4.4,0-7.979,3.54-7.979,7.89v43.143
		c0,4.349,3.579,7.888,7.979,7.888c4.399,0,7.979-3.539,7.979-7.888V56.825C87.744,52.475,84.164,48.935,79.765,48.935
		 M79.765,111.254c-6.293,0-11.414-5.062-11.414-11.286V56.825c0-6.223,5.121-11.285,11.414-11.285s11.414,5.062,11.414,11.285
		v43.143C91.179,106.192,86.058,111.254,79.765,111.254"/>
	<path clip-path="url(#SVGID_4_)" fill="#FFFFFF" d="M4.557,142.413c1.022,2.648,2.938,6.189,5.398,6.189h37.811
		c3.25,0,4.889-3.78,5.601-6.189H4.557z M47.766,152H9.955c-6.485,0-9.14-9.76-9.422-10.875L0,139.014h57.526l-0.297,1.952
		C57.161,141.416,55.463,152,47.766,152"/>
	<path clip-path="url(#SVGID_4_)" fill="#FFFFFF" d="M19.351,142.289c-11.992-4.796-18.868-14.24-18.868-25.913v-10.916h56.765
		v10.916c0,11.659-6.869,21.104-18.847,25.911l-1.293-3.146c10.616-4.262,16.704-12.56,16.704-22.765v-7.518H3.918v7.518
		c0,10.217,6.094,18.514,16.721,22.763L19.351,142.289z"/>
	<path clip-path="url(#SVGID_4_)" fill="#FFFFFF" d="M53.107,130.429c-0.95,0-1.718-0.76-1.718-1.7c0-0.938,0.768-1.699,1.718-1.699
		c11.16,0,12.827-5.629,12.827-8.983c0-2.425-2.13-4.396-4.75-4.396c-2.904,0-3.936,2.368-3.936,4.396
		c0,0.938-0.768,1.699-1.717,1.699c-0.95,0-1.718-0.76-1.718-1.699c0-4.516,3.1-7.795,7.37-7.795c4.513,0,8.185,3.497,8.185,7.795
		C69.368,120.951,68.197,130.429,53.107,130.429"/>
	<path clip-path="url(#SVGID_4_)" fill="#FFFFFF" d="M23.762,98.984l-1.904-2.827l0.952,1.413l-0.976-1.398
		c0.044-0.032,1.071-0.774,1.071-2.195c-0.047-0.37-0.763-1.638-1.472-2.577c-0.648-0.854-2.164-3.019-2.164-4.611
		c0-2.612,1.627-4.38,2.588-5.014l1.905,2.828c-0.023,0.016-1.058,0.765-1.058,2.186c0.049,0.375,0.754,1.618,1.48,2.577
		c0.649,0.859,2.156,3.024,2.156,4.611C26.341,96.59,24.72,98.355,23.762,98.984"/>
	<path clip-path="url(#SVGID_4_)" fill="#FFFFFF" d="M35.882,98.984l-1.904-2.827l0.952,1.413l-0.976-1.398
		c0.044-0.032,1.071-0.774,1.071-2.195c-0.047-0.37-0.763-1.638-1.472-2.577c-0.648-0.854-2.164-3.019-2.164-4.611
		c0-2.612,1.627-4.38,2.588-5.014l1.905,2.828c-0.023,0.016-1.058,0.765-1.058,2.186c0.049,0.375,0.754,1.618,1.48,2.577
		c0.649,0.859,2.156,3.024,2.156,4.611C38.461,96.59,36.84,98.355,35.882,98.984"/>
</g>
</svg>
