<?xml version="1.0" encoding="utf-8"?>
<!-- Generator: Adobe Illustrator 24.0.3, SVG Export Plug-In . SVG Version: 6.00 Build 0)  -->
<svg version="1.1" id="Layer_1" xmlns="http://www.w3.org/2000/svg" xmlns:xlink="http://www.w3.org/1999/xlink" x="0px" y="0px"
	 width="162px" height="150px" viewBox="0 0 162 150" enable-background="new 0 0 162 150" xml:space="preserve">
<g>
	<defs>
		<rect id="SVGID_1_" width="161.631" height="150"/>
	</defs>
	<clipPath id="SVGID_2_">
		<use xlink:href="#SVGID_1_"  overflow="visible"/>
	</clipPath>
	<path clip-path="url(#SVGID_2_)" fill="#FFFFFF" d="M16.397,107.944h5.369V97.168h-5.369V107.944z M16.705,132.972h5.369v-10.776
		h-5.369V132.972z M103.485,122.196h-5.162v10.776h5.162V122.196z M103.485,96.796h-5.162v10.776h5.162V96.796z M81.39,122.196
		h-5.584v10.776h5.584V122.196z M81.39,96.796h-5.584v10.776h5.584V96.796z M58.419,122.196h-5.584v10.776h5.584V122.196z
		 M58.419,96.796h-5.584v10.776h5.584V96.796z M134.671,91.466h5.584v-7.548h-5.584V91.466z M134.671,112.627h5.584v-7.548h-5.584
		V112.627z M134.671,133.238h5.584v-7.548h-5.584V133.238z M127.077,51.037c0-5.466,4.447-9.913,9.913-9.913
		c5.465,0,9.913,4.447,9.913,9.913c0,5.467-4.448,9.914-9.913,9.914C131.524,60.951,127.077,56.503,127.077,51.037 M122.499,51.037
		c0,7.99,6.5,14.491,14.491,14.491c7.99,0,14.491-6.501,14.491-14.491s-6.502-14.491-14.491-14.491
		C128.999,36.545,122.499,43.046,122.499,51.037 M156.257,66.304h-37.904V35.538h37.904V66.304z M147.423,30.165h-20.506
		l10.108-18.519L147.423,30.165z M123.578,71.677h27.405v72.95h-27.405V71.677z M118.198,144.627H38.157V85.4h80.041V144.627z
		 M33.003,64.043l-0.255,80.584H5.379L5.03,64.778l4.66-7.252l6.749,9.093l0.029,10.673h5.491V66.619l5.989-9.093L33.003,64.043z
		 M161.63,71.69V30.165h-7.739L136.955,0l-16.464,30.165h-7.512v41.388v0.138h5.224v8.336H38.157V61.354L27.718,48.128l-8.66,12.161
		l-9.6-12.161L0,61.412L0.006,150h156.212h0.138V71.69H161.63z"/>
</g>
<polygon fill="#FFFFFF" points="138.189,45.602 134.59,45.602 134.59,54.988 141.503,54.988 141.503,51.133 138.189,51.133 "/>
</svg>
