<?xml version="1.0" encoding="utf-8"?>
<!-- Generator: Adobe Illustrator 24.2.1, SVG Export Plug-In . SVG Version: 6.00 Build 0)  -->
<svg version="1.0" id="Layer_1" xmlns="http://www.w3.org/2000/svg" xmlns:xlink="http://www.w3.org/1999/xlink" x="0px" y="0px"
	 viewBox="0 0 165.6 152" style="enable-background:new 0 0 165.6 152;" xml:space="preserve">
<style type="text/css">
	.st0{fill:#FFFFFF;}
</style>
<g>
	<path class="st0" d="M129.9,128.2c-1.3,0-2.5-0.8-3-2.1L99.2,50c-6.1-16.6-14.4-28.8-24.8-36.2C65.6,7.7,55.8,5.3,46,6.9
		c-12,2-21.6,8.5-27.7,18.8c-8.3,14-9.8,34.3-3.8,51.8c0.6,1.7-0.3,3.5-2,4.1c-1.7,0.6-3.5-0.3-4.1-2C1.9,60.5,3.6,38,12.8,22.5
		C19.9,10.5,31,3,44.9,0.6c11.5-2,23,0.8,33.2,8c11.5,8.1,20.6,21.3,27.1,39.2l27.7,76.1c0.6,1.7-0.3,3.5-1.9,4.1
		C130.7,128.2,130.3,128.2,129.9,128.2z"/>
</g>
<g>
	<path class="st0" d="M26.2,137.9c-6.6,0-11.9-5.4-11.9-11.9c0-6.6,5.4-11.9,11.9-11.9c6.6,0,11.9,5.4,11.9,11.9
		C38.2,132.6,32.8,137.9,26.2,137.9z M26.2,120.5c-3,0-5.5,2.5-5.5,5.5c0,3,2.5,5.5,5.5,5.5c3,0,5.5-2.5,5.5-5.5
		C31.7,122.9,29.3,120.5,26.2,120.5z"/>
</g>
<g>
	<path class="st0" d="M111,151.9c-0.8,0-1.6-0.2-2.4-0.6c-1.3-0.6-2.2-1.7-2.6-3.1l-1.2-3.8c-1-3.1,1.3-5.1,2.2-6
		c0,0,0.1-0.1,0.1-0.1l21.1-16.8c0.6-0.5,1.4-0.7,2.1-0.7l27.3,1.1c0.1,0,0.1,0,0.2,0c1.2,0.1,4.3,0.4,5.3,3.5l1.2,3.8
		c0.9,2.8-0.6,5.7-3.4,6.6l-48.4,15.7C112.1,151.8,111.6,151.9,111,151.9z M111.2,143.4l0.6,1.8l46.2-14.9l-0.6-1.8c0,0,0,0,0,0
		l-26-1.1L111.2,143.4C111.2,143.3,111.2,143.4,111.2,143.4z"/>
</g>
<g>
	<path class="st0" d="M51,144.7c-2.9,0-4.8,0-5.9,0l-1.2,0c-3.5,0-3.6-3.1-3.6-3.2c0-0.1,0-3.2,3.5-3.2l0.9,0c0.6,0,1.5,0,2,0
		c0.2,0,0.3,0,0.5,0c0.2,0,0.4,0,0.6,0.1c1.1,0,2.2,0,3.3,0c6.6,0,20.4,0,32-2.6c12.6-2.8,19-7.8,19-14.8c0-4.9-4.2-12.5-11.2-20.2
		c-7.7-8.4-17.9-16.1-28.1-21c-8.9-4.3-17.6-6.5-25.6-6.6c-0.1,0-0.2,0-0.2,0c-8.8,0-16.6,2.6-23.3,7.8c-6.9,9.2-8.4,16.2-6.1,27.6
		c0.4,1.7-0.8,3.4-2.5,3.8c-1.7,0.4-3.4-0.8-3.8-2.5c-2.7-13.3-0.7-22.2,7.5-33.1c0.2-0.2,0.4-0.4,0.6-0.6C24,64.4,44,63.6,65.4,74
		c11.1,5.3,21.7,13.3,30.1,22.4c8.2,9,12.9,17.9,12.9,24.5c0,5.8-2.6,10.6-7.7,14.4c-3.9,2.9-9.4,5.1-16.3,6.7
		C72.1,144.7,57.8,144.7,51,144.7z"/>
</g>
<g>
	<path class="st0" d="M26.2,151.9c-14.3,0-25.9-11.6-25.9-25.9S11.9,100,26.2,100c14.3,0,25.9,11.6,25.9,25.9S40.5,151.9,26.2,151.9
		z M26.2,106.5c-10.8,0-19.5,8.8-19.5,19.5s8.8,19.5,19.5,19.5c10.8,0,19.5-8.8,19.5-19.5S37,106.5,26.2,106.5z"/>
</g>
</svg>
