<?xml version="1.0" encoding="utf-8"?>
<!-- Generator: Adobe Illustrator 24.0.3, SVG Export Plug-In . SVG Version: 6.00 Build 0)  -->
<svg version="1.1" id="Layer_1" xmlns="http://www.w3.org/2000/svg" xmlns:xlink="http://www.w3.org/1999/xlink" x="0px" y="0px"
	 width="154px" height="150px" viewBox="0 0 154 150" enable-background="new 0 0 154 150" xml:space="preserve">
<path fill="#FFFFFF" d="M75.432,46.485h71.512v72.37h-8.539l-6.041,9.727l0.015-9.727H75.432V46.485z M6.335,6.365h119.953v33.753
	H69.095v70.569H31.59l0.012,20.578l-14.928-20.578H6.335V6.365z M0,0.001v117.05h13.412L37.852,150l-0.054-32.949h31.297v8.168
	h57.076L126.114,150l15.761-24.781h11.403v-85.1h-20.656V0.001H0z"/>
<g>
	<defs>
		<rect id="SVGID_1_" width="153.279" height="149.999"/>
	</defs>
	<clipPath id="SVGID_2_">
		<use xlink:href="#SVGID_1_"  overflow="visible"/>
	</clipPath>
	<path clip-path="url(#SVGID_2_)" fill="#FFFFFF" d="M101.368,86.065c1.755,0,3.177-1.43,3.177-3.192s-1.422-3.192-3.177-3.192
		c-1.755,0-3.177,1.43-3.177,3.192S99.614,86.065,101.368,86.065"/>
	<path clip-path="url(#SVGID_2_)" fill="#FFFFFF" d="M111.089,86.065c1.755,0,3.177-1.43,3.177-3.192s-1.422-3.192-3.177-3.192
		c-1.755,0-3.177,1.43-3.177,3.192S109.334,86.065,111.089,86.065"/>
	<path clip-path="url(#SVGID_2_)" fill="#FFFFFF" d="M120.809,86.065c1.755,0,3.177-1.43,3.177-3.192s-1.422-3.192-3.177-3.192
		c-1.755,0-3.177,1.43-3.177,3.192S119.054,86.065,120.809,86.065"/>
	<path clip-path="url(#SVGID_2_)" fill="#FFFFFF" d="M34.42,61.448c1.755,0,3.177-1.43,3.177-3.192c0-1.762-1.422-3.192-3.177-3.192
		c-1.755,0-3.177,1.43-3.177,3.192C31.243,60.018,32.665,61.448,34.42,61.448"/>
	<path clip-path="url(#SVGID_2_)" fill="#FFFFFF" d="M44.14,61.448c1.755,0,3.177-1.43,3.177-3.192c0-1.762-1.422-3.192-3.177-3.192
		c-1.755,0-3.177,1.43-3.177,3.192C40.963,60.018,42.386,61.448,44.14,61.448"/>
	<path clip-path="url(#SVGID_2_)" fill="#FFFFFF" d="M53.861,61.448c1.755,0,3.177-1.43,3.177-3.192
		c0-1.762-1.422-3.192-3.177-3.192c-1.755,0-3.177,1.43-3.177,3.192C50.683,60.018,52.106,61.448,53.861,61.448"/>
</g>
</svg>
