<?xml version="1.0" encoding="utf-8"?>
<!-- Generator: Adobe Illustrator 24.2.1, SVG Export Plug-In . SVG Version: 6.00 Build 0)  -->
<svg version="1.1" id="Layer_1" xmlns="http://www.w3.org/2000/svg" xmlns:xlink="http://www.w3.org/1999/xlink" x="0px" y="0px"
	 viewBox="0 0 79.66 76.27" style="enable-background:new 0 0 79.66 76.27;" xml:space="preserve">
<style type="text/css">
	.st0{fill:#FFFFFF;}
	.st1{fill:none;stroke:#FFFFFF;stroke-width:4;stroke-miterlimit:10;}
</style>
<g>
	<g>
		<polygon class="st0" points="67.55,75.59 44.25,75.59 44.25,57.67 36.71,57.67 36.71,75.59 11.31,75.59 11.31,36.02 16.77,36.02 
			16.78,70.13 31.24,70.13 31.24,52.21 49.71,52.21 49.71,70.13 62.09,70.13 62.09,35.81 67.55,35.81 		"/>
	</g>
	<g>
		<path class="st1" d="M33.98,72.86"/>
	</g>
	<g>
		<path class="st1" d="M46.98,72.86"/>
	</g>
	<g>
		<polygon class="st0" points="3.75,38.95 0.19,34.81 39.56,1 78.68,34.6 75.12,38.74 39.56,8.2 		"/>
	</g>
	<g>
		<polygon class="st0" points="27.9,34.51 24.34,30.37 39.48,17.37 54.53,30.3 50.97,34.44 39.48,24.57 		"/>
	</g>
</g>
</svg>
