<?xml version="1.0" encoding="utf-8"?>
<!-- Generator: Adobe Illustrator 24.2.1, SVG Export Plug-In . SVG Version: 6.00 Build 0)  -->
<svg version="1.1" id="Layer_1" xmlns="http://www.w3.org/2000/svg" xmlns:xlink="http://www.w3.org/1999/xlink" x="0px" y="0px"
	 viewBox="0 0 76.66 76.27" style="enable-background:new 0 0 76.66 76.27;" xml:space="preserve">
<style type="text/css">
	.st0{fill:#FFFFFF;}
</style>
<g>
	<path class="st0" d="M38.43,7.72c9.96,0,11.14,0.04,15.07,0.22c3.64,0.17,5.61,0.77,6.93,1.28c1.74,0.68,2.98,1.48,4.29,2.79
		c1.31,1.31,2.11,2.55,2.79,4.29c0.51,1.31,1.12,3.29,1.28,6.93c0.18,3.93,0.22,5.11,0.22,15.07s-0.04,11.14-0.22,15.07
		c-0.17,3.64-0.77,5.61-1.28,6.93c-0.68,1.74-1.48,2.98-2.79,4.29c-1.31,1.31-2.55,2.11-4.29,2.79c-1.31,0.51-3.29,1.12-6.93,1.28
		c-3.93,0.18-5.11,0.22-15.07,0.22s-11.14-0.04-15.07-0.22c-3.64-0.17-5.61-0.77-6.93-1.28c-1.74-0.68-2.98-1.48-4.29-2.79
		c-1.31-1.31-2.11-2.55-2.79-4.29C8.85,58.98,8.24,57,8.07,53.37C7.9,49.43,7.86,48.25,7.86,38.3S7.9,27.16,8.07,23.22
		c0.17-3.64,0.77-5.61,1.28-6.93c0.68-1.74,1.48-2.98,2.79-4.29c1.31-1.31,2.55-2.11,4.29-2.79c1.31-0.51,3.29-1.12,6.93-1.28
		C27.3,7.76,28.47,7.72,38.43,7.72 M38.43,1C28.3,1,27.03,1.04,23.06,1.22C19.09,1.41,16.38,2.04,14,2.96
		c-2.45,0.95-4.53,2.23-6.61,4.3c-2.07,2.07-3.35,4.15-4.3,6.61c-0.92,2.37-1.55,5.08-1.73,9.05C1.18,26.9,1.14,28.17,1.14,38.3
		c0,10.13,0.04,11.4,0.22,15.38c0.18,3.97,0.81,6.68,1.73,9.05c0.95,2.45,2.23,4.53,4.3,6.61c2.07,2.07,4.15,3.35,6.61,4.3
		c2.37,0.92,5.08,1.55,9.05,1.73c3.98,0.18,5.25,0.22,15.38,0.22s11.4-0.04,15.38-0.22c3.97-0.18,6.68-0.81,9.05-1.73
		c2.45-0.95,4.53-2.23,6.61-4.3c2.07-2.07,3.35-4.15,4.3-6.61c0.92-2.37,1.55-5.08,1.73-9.05c0.18-3.98,0.22-5.25,0.22-15.38
		s-0.04-11.4-0.22-15.38c-0.18-3.97-0.81-6.68-1.73-9.05c-0.95-2.45-2.23-4.53-4.3-6.61c-2.07-2.07-4.15-3.35-6.61-4.3
		c-2.37-0.92-5.08-1.55-9.05-1.73C49.83,1.04,48.56,1,38.43,1L38.43,1z"/>
	<path class="st0" d="M38.43,19.14c-10.58,0-19.15,8.57-19.15,19.15s8.57,19.15,19.15,19.15s19.15-8.57,19.15-19.15
		S49.01,19.14,38.43,19.14z M38.43,50.73C31.57,50.73,26,45.16,26,38.3c0-6.87,5.57-12.43,12.43-12.43s12.43,5.57,12.43,12.43
		C50.86,45.16,45.3,50.73,38.43,50.73z"/>
	<circle class="st0" cx="58.34" cy="18.39" r="4.48"/>
</g>
</svg>
