<?xml version="1.0" encoding="utf-8"?>
<!-- Generator: Adobe Illustrator 24.2.1, SVG Export Plug-In . SVG Version: 6.00 Build 0)  -->
<svg version="1.0" id="Layer_1" xmlns="http://www.w3.org/2000/svg" xmlns:xlink="http://www.w3.org/1999/xlink" x="0px" y="0px"
	 viewBox="0 0 150.1 152" style="enable-background:new 0 0 150.1 152;" xml:space="preserve">
<style type="text/css">
	.st0{fill:#FFFFFF;}
</style>
<g>
	<path class="st0" d="M144.4,152H5.8c-1.5,0-3-0.6-4.1-1.7c-1.1-1.1-1.7-2.5-1.7-4.1V5.8c0-1.5,0.6-3,1.7-4.1C2.8,0.6,4.2,0,5.8,0
		h138.6c1.5,0,3,0.6,4.1,1.7c1.1,1.1,1.7,2.5,1.7,4.1v140.5c0,1.5-0.6,3-1.7,4.1C147.3,151.4,145.9,152,144.4,152z M144.3,146.3
		L144.3,146.3L144.3,146.3z M94.3,146.2h50V5.9h-50V146.2z M5.9,146.2h82.6V5.9H5.9V146.2z M144.4,5.9L144.4,5.9L144.4,5.9z
		 M39,139.6c-0.8,0-1.6-0.1-2.4-0.2c-5.4-1-8.9-4.9-8.8-9.8l0.3-19.4l0.1-14.2c-2.7,1.2-5.8,1.2-8.5,0.2c-4.3-1.7-7.6-6.3-5.6-11.9
		l7.3-29.5c0-0.1,0.1-0.2,0.1-0.3c1.3-3.4,5.7-7.9,10-7.7l0.5-0.1c2.1-0.2,3.9-0.4,5.6-0.6c-4.1-2.9-6.9-7.6-6.9-13
		c0-5.7,3.1-11,8-13.8c2.4-1.4,5.2-2.2,8-2.2c8.7,0,15.8,7.1,15.8,15.8c0,5.3-2.7,10.3-7.2,13.2c1.9,0.2,4,0.4,6.3,0.7
		c4.2-0.3,8.7,4.2,10,7.7c0,0.1,0.1,0.2,0.1,0.3L80,84.5c2.1,5.8-1.3,10.6-5.8,12.5c-2.8,1.1-6.1,1.2-9-0.1l0.1,12l0.3,20.7
		c0,1.8-0.5,3.7-1.4,5.2c-2.4,3.9-6.9,5.7-11.7,4.4c-2-0.5-3.7-1.5-5-2.8C45.2,138.6,42.1,139.6,39,139.6z M34.2,89l-0.2,21.4
		l-0.3,19.4c0,3,3.1,3.8,4,3.9c2.5,0.5,5.4-0.3,6.3-2.6c0,0,0,0,0,0c0.2-0.5,0.3-0.9,0.3-1.4V95.9c0-1.6,1.3-2.9,2.9-2.9
		c1.6,0,2.9,1.3,2.9,2.9v33.7c0,1.6,1.7,3.3,3.9,3.9c1.1,0.3,3.7,0.7,5.1-1.7c0,0,0,0,0,0c0.4-0.6,0.6-1.3,0.6-2.1l-0.3-20.7
		l-0.2-19.1c0-0.1,0-0.1,0-0.2L59,70.5c0-1.6,1.3-2.9,2.9-3c0,0,0,0,0,0c1.6,0,2.9,1.3,2.9,2.9L65,89c1,1.8,3.3,4,6.9,2.6
		c0.6-0.3,3.8-1.8,2.5-5.1c0-0.1-0.1-0.2-0.1-0.3l-8.1-29.5c-0.7-1.8-3.2-3.8-4.1-3.8c-0.3,0-0.5,0-0.7,0
		c-15.2-1.8-18.3-1.4-28.7-0.2l-0.8,0.1c-0.3,0-0.5,0-0.8,0c-0.8,0-3.3,2-4,3.8L19.8,86c0,0.1-0.1,0.2-0.1,0.3
		c-1.1,2.9,1.1,4.1,2.1,4.5c1.6,0.6,4.9,0.8,6.4-2.5l0.2-19.1c0-1.6,1.3-2.9,2.9-2.9c0,0,0,0,0,0c1.6,0,2.9,1.3,2.9,3L34.2,89
		C34.2,88.9,34.2,88.9,34.2,89z M46.8,23.1c-1.8,0-3.5,0.5-5.1,1.4c0,0,0,0,0,0c-3.1,1.8-5.1,5.1-5.1,8.7c0,5.5,4.5,10,10,10
		c1.8,0,3.5-0.5,5.1-1.4c0,0,0,0,0,0c3.1-1.8,5.1-5.1,5.1-8.7C56.7,27.6,52.3,23.1,46.8,23.1z M40.2,22L40.2,22L40.2,22z M119.3,107
		c-0.9,0-1.8-0.4-2.4-1.2l-15.7-21.3c-0.7-0.9-0.8-2.1-0.3-3.1c0.5-1,1.5-1.6,2.6-1.6H135c1.1,0,2.1,0.6,2.6,1.6
		c0.5,1,0.4,2.2-0.3,3.1l-15.7,21.3C121.1,106.6,120.2,107,119.3,107z M109.4,85.7l9.9,13.4l9.9-13.4H109.4z M135,72.2h-31.4
		c-1.1,0-2.1-0.6-2.6-1.6c-0.5-1-0.4-2.2,0.3-3.1l15.7-21.3c0.6-0.7,1.4-1.2,2.4-1.2l0,0c0.9,0,1.8,0.4,2.4,1.2l15.7,21.3
		c0.7,0.9,0.8,2.1,0.3,3.1C137.1,71.6,136.1,72.2,135,72.2z M109.4,66.3h19.8l-9.9-13.4L109.4,66.3z"/>
</g>
</svg>
