<?xml version="1.0" encoding="utf-8"?>
<!-- Generator: Adobe Illustrator 24.2.1, SVG Export Plug-In . SVG Version: 6.00 Build 0)  -->
<svg version="1.0" id="Layer_1" xmlns="http://www.w3.org/2000/svg" xmlns:xlink="http://www.w3.org/1999/xlink" x="0px" y="0px"
	 viewBox="0 0 163.8 152" style="enable-background:new 0 0 163.8 152;" xml:space="preserve">
<style type="text/css">
	.st0{clip-path:url(#SVGID_2_);fill:#FFFFFF;}
	.st1{fill:#FFFFFF;}
</style>
<g>
	<defs>
		<rect id="SVGID_1_" width="163.8" height="152"/>
	</defs>
	<clipPath id="SVGID_2_">
		<use xlink:href="#SVGID_1_"  style="overflow:visible;"/>
	</clipPath>
	<path class="st0" d="M16.6,109.4h5.4V98.5h-5.4V109.4z M16.9,134.7h5.4v-10.9h-5.4V134.7z M104.9,123.8h-5.2v10.9h5.2V123.8z
		 M104.9,98.1h-5.2V109h5.2V98.1z M82.5,123.8h-5.7v10.9h5.7V123.8z M82.5,98.1h-5.7V109h5.7V98.1z M59.2,123.8h-5.7v10.9h5.7V123.8
		z M59.2,98.1h-5.7V109h5.7V98.1z M136.5,92.7h5.7V85h-5.7V92.7z M136.5,114.1h5.7v-7.6h-5.7V114.1z M136.5,135h5.7v-7.6h-5.7V135z
		 M128.8,51.7c0-5.5,4.5-10,10-10c5.5,0,10,4.5,10,10c0,5.5-4.5,10-10,10C133.3,61.8,128.8,57.3,128.8,51.7 M124.1,51.7
		c0,8.1,6.6,14.7,14.7,14.7c8.1,0,14.7-6.6,14.7-14.7c0-8.1-6.6-14.7-14.7-14.7C130.7,37,124.1,43.6,124.1,51.7 M158.3,67.2h-38.4
		V36h38.4V67.2z M149.4,30.6h-20.8l10.2-18.8L149.4,30.6z M125.2,72.6H153v73.9h-27.8V72.6z M119.8,146.6H38.7v-60h81.1V146.6z
		 M33.4,64.9l-0.3,81.7H5.5L5.1,65.6l4.7-7.3l6.8,9.2l0,10.8h5.6V67.5l6.1-9.2L33.4,64.9z M163.8,72.6V30.6h-7.8L138.8,0l-16.7,30.6
		h-7.6v41.9v0.1h5.3v8.4H38.7V62.2L28.1,48.8l-8.8,12.3L9.6,48.8L0,62.2L0,152h158.3h0.1V72.6H163.8z"/>
</g>
<polygon class="st1" points="140,46.2 136.4,46.2 136.4,55.7 143.4,55.7 143.4,51.8 140,51.8 "/>
</svg>
