<?xml version="1.0" encoding="utf-8"?>
<!-- Generator: Adobe Illustrator 24.2.1, SVG Export Plug-In . SVG Version: 6.00 Build 0)  -->
<svg version="1.0" id="Layer_1" xmlns="http://www.w3.org/2000/svg" xmlns:xlink="http://www.w3.org/1999/xlink" x="0px" y="0px"
	 viewBox="0 0 166.9 152" style="enable-background:new 0 0 166.9 152;" xml:space="preserve">
<style type="text/css">
	.st0{fill:#FFFFFF;}
</style>
<polygon class="st0" points="140,46.2 136.4,46.2 136.4,55.7 143.4,55.7 143.4,51.8 140,51.8 "/>
<g>
	<path class="st0" d="M104.6,24c-1.8,0-3.2-1.4-3.2-3.2V9.5c0-0.8-0.3-1.6-0.9-2.2c-0.6-0.6-1.4-0.9-2.2-0.9H68.6
		c-0.7,0-1.4,0.3-2,0.7c-0.1,0.1-0.1,0.1-0.2,0.2c-0.6,0.6-0.9,1.4-0.9,2.2v11.3c0,1.8-1.4,3.2-3.2,3.2s-3.2-1.4-3.2-3.2V9.5
		c0-2.4,0.9-4.6,2.5-6.4c0.1-0.1,0.2-0.3,0.3-0.4C63.7,1,66.1,0,68.6,0h29.7c2.5,0,4.9,1,6.7,2.8c1.8,1.8,2.8,4.2,2.8,6.7v11.3
		C107.8,22.6,106.4,24,104.6,24z"/>
</g>
<g>
	<path class="st0" d="M153.6,152h-18.5c-1.8,0-3.2-1.4-3.2-3.2v-44.7c0-1.8,1.4-3.2,3.2-3.2c1.8,0,3.2,1.4,3.2,3.2v41.5h15.3
		c3.8,0,6.9-3.1,6.9-6.9V33.4c0-3.8-3.1-6.9-6.9-6.9h-15.3v50.6c0,1.8-1.4,3.2-3.2,3.2c-1.8,0-3.2-1.4-3.2-3.2V23.3
		c0-1.8,1.4-3.2,3.2-3.2h18.5c7.3,0,13.3,6,13.3,13.3v105.3C166.9,146,160.9,152,153.6,152z"/>
</g>
<g>
	<path class="st0" d="M127.4,118.2c-0.5,0-1.1-0.1-1.6-0.4l-22.5-13c-0.7-0.4-1.3-1.1-1.5-2c-0.2-0.8-0.1-1.7,0.3-2.4l18.2-31.5
		c0.9-1.5,2.9-2.1,4.4-1.2l22.5,13c1.5,0.9,2.1,2.9,1.2,4.4l-18.2,31.5C129.6,117.6,128.5,118.2,127.4,118.2z M109.3,100.8l16.9,9.8
		l15-25.9l-16.9-9.8L109.3,100.8z"/>
</g>
<g>
	<path class="st0" d="M135.1,152H31.8c-1.8,0-3.2-1.4-3.2-3.2s1.4-3.2,3.2-3.2h103.4c1.8,0,3.2,1.4,3.2,3.2S136.9,152,135.1,152z"/>
</g>
<g>
	<path class="st0" d="M137.1,26.5H31.8c-1.8,0-3.2-1.4-3.2-3.2s1.4-3.2,3.2-3.2h105.3c1.8,0,3.2,1.4,3.2,3.2S138.8,26.5,137.1,26.5z
		"/>
</g>
<g>
	<path class="st0" d="M31.8,152H13.3C6,152,0,146,0,138.7V33.4C0,26,6,20.1,13.3,20.1h18.5c1.8,0,3.2,1.4,3.2,3.2v125.5
		C35,150.5,33.5,152,31.8,152z M13.3,26.5c-3.8,0-6.9,3.1-6.9,6.9v105.3c0,3.8,3.1,6.9,6.9,6.9h15.3V26.5H13.3z"/>
</g>
<g>
	<path class="st0" d="M67.3,101.9c-0.5,0-0.9-0.1-1.3-0.3L43.1,91c-1.6-0.7-2.3-2.7-1.6-4.3l7.5-16.3c0.4-0.8,1-1.4,1.8-1.7
		c0.8-0.3,1.7-0.3,2.5,0.1l22.9,10.6c1.6,0.7,2.3,2.7,1.6,4.3L70.2,100c-0.4,0.8-1,1.4-1.8,1.7C68,101.8,67.7,101.9,67.3,101.9z
		 M48.7,86.5l17.1,7.9l4.9-10.5l-17-7.9L48.7,86.5z"/>
</g>
<g>
	<path class="st0" d="M98.7,74.9c-10.2,0-18.2-6.2-18.2-14.1c0-7.9,8-14.1,18.2-14.1c10.2,0,18.2,6.2,18.2,14.1
		C116.9,68.7,108.9,74.9,98.7,74.9z M98.7,53.2c-6.4,0-11.8,3.5-11.8,7.7c0,4.1,5.4,7.7,11.8,7.7c6.4,0,11.8-3.5,11.8-7.7
		C110.4,56.7,105.1,53.2,98.7,53.2z"/>
</g>
</svg>
