<?xml version="1.0" encoding="utf-8"?>
<!-- Generator: Adobe Illustrator 24.2.1, SVG Export Plug-In . SVG Version: 6.00 Build 0)  -->
<svg version="1.0" id="Layer_1" xmlns="http://www.w3.org/2000/svg" xmlns:xlink="http://www.w3.org/1999/xlink" x="0px" y="0px"
	 viewBox="0 0 152.5 152" style="enable-background:new 0 0 152.5 152;" xml:space="preserve">
<style type="text/css">
	.st0{fill:#FFFFFF;}
</style>
<g>
	<path class="st0" d="M113.7,88.1H90.5L72.8,70.5h40.9V88.1z M93,82.2h14.8v-5.8H87.1L93,82.2z M85.7,88.1H25.2V70.5h42.9L85.7,88.1
		z M31.1,82.2h40.4l-5.8-5.8H31.1V82.2z"/>
</g>
<g>
	<rect x="47.2" y="73.3" class="st0" width="5.9" height="11.9"/>
</g>
<g>
	<rect x="115.4" y="71.9" class="st0" width="5.9" height="14.8"/>
</g>
<g>
	<rect x="123.1" y="71.9" class="st0" width="5.9" height="14.8"/>
</g>
<g>
	<path class="st0" d="M124,67.5l-3.2-5c1.4-0.9,2-1.4,2.3-1.7c-0.2-0.3-0.8-0.9-2.3-1.8c-2.5-1.6-5.4-3.9-5.4-7.1
		c0-3.5,3.5-5.8,5.4-7l3.2,5c-1.7,1.1-2.3,1.7-2.6,2c0.2,0.3,0.9,1,2.6,2.1c2.2,1.4,5.1,3.6,5.1,6.9C129.1,64.3,125.9,66.3,124,67.5
		z"/>
</g>
<g>
	<path class="st0" d="M111.7,66.5l-3.2-5c1.4-0.9,2-1.4,2.3-1.7c-0.2-0.3-0.8-0.9-2.3-1.8c-2.5-1.6-5.4-3.9-5.4-7.1
		c0-3.5,3.5-5.8,5.4-7l3.2,5c-1.7,1.1-2.3,1.7-2.6,2c0.2,0.3,0.9,1,2.6,2.1c2.2,1.4,5.1,3.6,5.1,6.9
		C116.8,63.2,113.6,65.3,111.7,66.5z"/>
</g>
<g>
	<path class="st0" d="M76,152c-41.9,0-76-34.1-76-76C0,34.1,34.1,0,76,0s76,34.1,76,76C152,117.9,117.9,152,76,152z M76,5.9
		C37.4,5.9,5.9,37.4,5.9,76c0,38.6,31.4,70.1,70.1,70.1c38.6,0,70.1-31.4,70.1-70.1C146.1,37.4,114.6,5.9,76,5.9z"/>
</g>
<g>
	<path class="st0" d="M76,142.7c-36.8,0-66.8-29.9-66.8-66.7c0-16,5.8-31.5,16.3-43.6l2.1-2.4l94.4,94.4l-2.4,2.1
		C107.5,137,92,142.7,76,142.7z M28,38.7C19.7,49.4,15.1,62.5,15.1,76c0,33.5,27.3,60.8,60.9,60.8c13.5,0,26.6-4.5,37.3-12.8
		L28,38.7z M124.4,122L30,27.6l2.4-2.1C44.5,15,60,9.3,76,9.3c36.8,0,66.8,29.9,66.8,66.7c0,16-5.8,31.5-16.3,43.6L124.4,122z
		 M38.7,28l85.3,85.3c8.3-10.7,12.8-23.8,12.8-37.3c0-33.5-27.3-60.8-60.9-60.8C62.5,15.2,49.4,19.7,38.7,28z"/>
</g>
</svg>
