<?xml version="1.0" encoding="utf-8"?>
<!-- Generator: Adobe Illustrator 24.2.1, SVG Export Plug-In . SVG Version: 6.00 Build 0)  -->
<svg version="1.0" id="Layer_1" xmlns="http://www.w3.org/2000/svg" xmlns:xlink="http://www.w3.org/1999/xlink" x="0px" y="0px"
	 viewBox="0 0 117.7 152" style="enable-background:new 0 0 117.7 152;" xml:space="preserve">
<style type="text/css">
	.st0{fill:none;stroke:#324C5E;stroke-width:14;stroke-linecap:round;stroke-linejoin:round;stroke-miterlimit:22.9256;}
	.st1{fill:#FFFFFF;}
</style>
<path class="st0" d="M16.7-987.6c0.8,8.8-1.2,20.5-9.5,30c-0.9,1-1.8,1.9-2.9,2.8L42.4-867l41.1-86.8c-1.6-1.2-3-2.5-4.3-3.9
	c-7.3-8.1-8.9-20.9-8.2-30.1"/>
<path class="st0" d="M171.2-824.9c14.4-75.6-1.8-105.9-87.8-128.9"/>
<path class="st0" d="M4.3-954.8l-33.6,12.4c-60.6,22.6-72.7,46.6-55.6,117.6"/>
<line class="st0" x1="130.6" y1="-850.2" x2="84.7" y2="-850.2"/>
<path class="st0" d="M22.1-1106.1c15.5,0,52.4-2.7,62.9-18.3c11.7,12.1,21,48.9,21,68.1c0,36.6-25.9,75.7-58.6,75.7
	c-32.7,0-59.2-29.7-59.2-66.3C-11.7-1083.4-10.6-1106.1,22.1-1106.1L22.1-1106.1z"/>
<path class="st0" d="M142.9-935.7c20.7-24.1,5.9-49.8,5.9-88.2c0-72.9-1.9-155.7-103.6-150.8c-101.7,4.9-104.6,59.1-104.6,132
	c0,45.8,0.8,80.6,15.7,100.2"/>
<g>
	<path class="st1" d="M59,134.4C59,134.4,59,134.4,59,134.4c-1.2,0-2.2-0.7-2.7-1.8L40.5,96c-0.5-1.2-0.2-2.5,0.8-3.4
		c0.4-0.3,0.7-0.6,0.9-0.9c3.4-3.9,3.4-8.5,3.3-10.3c-0.1-1.6,1.1-3,2.7-3.2c1.6-0.1,3,1.1,3.2,2.7c0.5,5.4-1.2,10.7-4.6,14.6
		l12.5,28.9L72.6,96c-0.1-0.1-0.3-0.3-0.4-0.4c-4.5-5-4.3-12.5-4.2-14.7c0.1-1.6,1.5-2.8,3.1-2.7c1.6,0.1,2.8,1.5,2.7,3.1
		c-0.2,3.3,0.3,7.8,2.7,10.4c0.4,0.4,0.8,0.8,1.4,1.2c1.1,0.8,1.5,2.3,0.9,3.6l-17.2,36.2C61.2,133.8,60.2,134.4,59,134.4z"/>
</g>
<g>
	<path class="st1" d="M112.9,152c-0.2,0-0.4,0-0.6-0.1c-1.6-0.3-2.6-1.8-2.3-3.4c3.1-16.1,2.4-26-2.2-33
		c-4.8-7.4-14.8-12.8-32.3-17.5c-1.6-0.4-2.5-2-2.1-3.6c0.4-1.6,2-2.5,3.6-2.1c19.3,5.2,30,11.1,35.7,19.9c5.5,8.4,6.4,19.6,3,37.3
		C115.5,151,114.2,152,112.9,152z"/>
</g>
<g>
	<path class="st1" d="M5.9,152c-1.3,0-2.5-0.9-2.8-2.2c-4-16.4-4.1-26.3-0.4-34.1c3.7-7.8,11.1-13.1,25.4-18.5l14-5.2
		c1.5-0.6,3.2,0.2,3.8,1.7c0.6,1.5-0.2,3.2-1.7,3.8l-14,5.2C17.4,107.5,11,112,8,118.2c-3,6.3-2.8,15.4,0.8,30.2
		c0.4,1.6-0.6,3.1-2.2,3.5C6.4,152,6.1,152,5.9,152z"/>
</g>
<g>
	<path class="st1" d="M95.9,141.4H76.7c-1.6,0-2.9-1.3-2.9-2.9s1.3-2.9,2.9-2.9h19.2c1.6,0,2.9,1.3,2.9,2.9S97.5,141.4,95.9,141.4z"
		/>
</g>
<g>
	<path class="st1" d="M61.1,87c-15.2,0-27.6-13.7-27.6-30.6c0-14.2,0-27.7,17-27.7c13.4,0,21.8-3.3,23.9-6.4
		c0.5-0.7,1.3-1.2,2.2-1.3c0.9-0.1,1.7,0.2,2.4,0.9c5.8,6,9.6,22.3,9.6,30.5C88.5,68.8,76.8,87,61.1,87z M76.5,28.5
		c-7.3,5.6-21.3,6.1-25.9,6.1c-3.9,0-7.7,0.6-9.5,4.9c-1.6,3.7-1.7,9.6-1.7,17c0,13.6,9.8,24.8,21.8,24.8
		c12.1,0,21.6-15.4,21.6-28.7C82.7,44.6,79.6,33.9,76.5,28.5z"/>
</g>
<g>
	<path class="st1" d="M101,105.7c-0.7,0-1.4-0.2-1.9-0.7c-1.2-1.1-1.4-2.9-0.3-4.1c5-5.9,4.2-12.1,3-20.6c-0.6-4.2-1.2-9-1.2-14.3
		c0-18.1,0-40.5-12-51.9C82.2,8,73,5.3,60.4,5.9C36,7.1,28.5,15.3,25,21.4c-5.1,8.9-5.5,21.3-5.5,36.7c0,18.9,0.4,32.8,6,40.1
		c1,1.3,0.7,3.1-0.6,4.1c-1.3,1-3.1,0.7-4.1-0.6c-6.7-8.7-7.2-22.9-7.2-43.6c0-16.3,0.5-29.6,6.3-39.7C26.6,6.9,39.4,1.1,60.1,0.1
		C74.4-0.6,85,2.6,92.6,9.8c13.8,13.1,13.8,37,13.8,56.2c0,4.9,0.6,9.3,1.2,13.5c1.3,9.3,2.4,17.4-4.4,25.2
		C102.7,105.4,101.9,105.7,101,105.7z"/>
</g>
</svg>
