<?xml version="1.0" encoding="utf-8"?>
<!-- Generator: Adobe Illustrator 24.2.1, SVG Export Plug-In . SVG Version: 6.00 Build 0)  -->
<svg version="1.1" id="Layer_1" xmlns="http://www.w3.org/2000/svg" xmlns:xlink="http://www.w3.org/1999/xlink" x="0px" y="0px"
	 viewBox="0 0 154 152" style="enable-background:new 0 0 154 152;" xml:space="preserve">
<style type="text/css">
	.st0{fill:#FFFFFF;}
</style>
<g>
	<path class="st0" d="M143.2,82.2c-1.3,0-2.5-0.9-2.8-2.3c-2.3-10.6-8.3-20.1-16.7-27c-8.6-7-19.4-10.8-30.5-10.8
		s-21.9,3.8-30.5,10.8c-8.5,6.9-14.4,16.5-16.7,27c-0.3,1.6-1.9,2.6-3.5,2.2c-1.6-0.3-2.6-1.9-2.2-3.5C43,66.8,49.6,56,59.1,48.3
		c9.6-7.8,21.7-12.1,34.1-12.1s24.5,4.3,34.1,12.1c9.5,7.7,16.1,18.4,18.7,30.3c0.3,1.6-0.6,3.1-2.2,3.5
		C143.7,82.1,143.5,82.2,143.2,82.2z"/>
</g>
<g>
	<path class="st0" d="M151.1,84.8H35.4c-1.6,0-2.9-1.3-2.9-2.9c0-1.6,1.3-2.9,2.9-2.9h115.7c1.6,0,2.9,1.3,2.9,2.9
		C154,83.5,152.7,84.8,151.1,84.8z"/>
</g>
<g>
	<path class="st0" d="M93.9,42.3c-1.6,0-2.9-1.3-2.9-2.9V27.5c0-12-9.7-21.7-21.7-21.7H2.9C1.3,5.8,0,4.5,0,2.9S1.3,0,2.9,0h66.4
		c15.2,0,27.5,12.3,27.5,27.5v11.9C96.8,41,95.5,42.3,93.9,42.3z"/>
</g>
<g>
	<path class="st0" d="M93.2,105.9c-1.6,0-2.9-1.3-2.9-2.9v-8.8c0-1.6,1.3-2.9,2.9-2.9c1.6,0,2.9,1.3,2.9,2.9v8.8
		C96.1,104.6,94.8,105.9,93.2,105.9z"/>
</g>
<g>
	<path class="st0" d="M93.2,151.9c-1.6,0-2.9-1.3-2.9-2.9v-8.8c0-1.6,1.3-2.9,2.9-2.9c1.6,0,2.9,1.3,2.9,2.9v8.8
		C96.1,150.6,94.8,151.9,93.2,151.9z"/>
</g>
<g>
	<path class="st0" d="M93.2,128.9c-1.6,0-2.9-1.3-2.9-2.9v-8.8c0-1.6,1.3-2.9,2.9-2.9c1.6,0,2.9,1.3,2.9,2.9v8.8
		C96.1,127.6,94.8,128.9,93.2,128.9z"/>
</g>
<g>
	<path class="st0" d="M114.5,105.9c-1.4,0-2.6-1-2.9-2.4l-1.6-8.8c-0.3-1.6,0.7-3.1,2.3-3.4c1.6-0.3,3.1,0.7,3.4,2.3l1.6,8.8
		c0.3,1.6-0.7,3.1-2.3,3.4C114.8,105.9,114.6,105.9,114.5,105.9z"/>
</g>
<g>
	<path class="st0" d="M123,151.9c-1.4,0-2.6-1-2.9-2.4l-1.6-8.8c-0.3-1.6,0.7-3.1,2.3-3.4c1.6-0.3,3.1,0.7,3.4,2.3l1.6,8.8
		c0.3,1.6-0.7,3.1-2.3,3.4C123.4,151.9,123.2,151.9,123,151.9z"/>
</g>
<g>
	<path class="st0" d="M118.8,128.9c-1.4,0-2.6-1-2.9-2.4l-1.6-8.8c-0.3-1.6,0.7-3.1,2.3-3.4c1.6-0.3,3.1,0.7,3.4,2.3l1.6,8.8
		c0.3,1.6-0.7,3.1-2.3,3.4C119.1,128.9,118.9,128.9,118.8,128.9z"/>
</g>
<g>
	<path class="st0" d="M134.7,105.9c-1.2,0-2.3-0.7-2.7-1.9l-3.1-8.8c-0.5-1.5,0.3-3.2,1.8-3.7c1.5-0.5,3.2,0.3,3.7,1.8l3.1,8.8
		c0.5,1.5-0.3,3.2-1.8,3.7C135.3,105.8,135,105.9,134.7,105.9z"/>
</g>
<g>
	<path class="st0" d="M151,151.9c-1.2,0-2.3-0.7-2.7-1.9l-3.1-8.8c-0.5-1.5,0.3-3.2,1.8-3.7c1.5-0.5,3.2,0.3,3.7,1.8l3.1,8.8
		c0.5,1.5-0.3,3.2-1.8,3.7C151.7,151.9,151.4,151.9,151,151.9z"/>
</g>
<g>
	<path class="st0" d="M142.9,128.9c-1.2,0-2.3-0.7-2.7-1.9l-3.1-8.8c-0.5-1.5,0.3-3.2,1.8-3.7c1.5-0.5,3.2,0.3,3.7,1.8l3.1,8.8
		c0.5,1.5-0.3,3.2-1.8,3.7C143.5,128.8,143.2,128.9,142.9,128.9z"/>
</g>
<g>
	<path class="st0" d="M72,105.9c-0.2,0-0.4,0-0.5,0c-1.6-0.3-2.6-1.8-2.3-3.4l1.6-8.8c0.3-1.6,1.8-2.6,3.4-2.3
		c1.6,0.3,2.6,1.8,2.3,3.4l-1.6,8.8C74.6,104.9,73.4,105.9,72,105.9z"/>
</g>
<g>
	<path class="st0" d="M63.4,151.9c-0.2,0-0.4,0-0.5,0c-1.6-0.3-2.6-1.8-2.3-3.4l1.6-8.8c0.3-1.6,1.8-2.6,3.4-2.3
		c1.6,0.3,2.6,1.8,2.3,3.4l-1.6,8.8C66,150.9,64.8,151.9,63.4,151.9z"/>
</g>
<g>
	<path class="st0" d="M67.7,128.9c-0.2,0-0.4,0-0.5,0c-1.6-0.3-2.6-1.8-2.3-3.4l1.6-8.8c0.3-1.6,1.8-2.6,3.4-2.3
		c1.6,0.3,2.6,1.8,2.3,3.4l-1.6,8.8C70.3,127.9,69.1,128.9,67.7,128.9z"/>
</g>
<g>
	<path class="st0" d="M51.8,105.9c-0.3,0-0.7-0.1-1-0.2c-1.5-0.5-2.3-2.2-1.8-3.7l3.1-8.8c0.5-1.5,2.2-2.3,3.7-1.8
		c1.5,0.5,2.3,2.2,1.8,3.7l-3.1,8.8C54.1,105.1,53,105.9,51.8,105.9z"/>
</g>
<g>
	<path class="st0" d="M35.4,151.9c-0.3,0-0.7-0.1-1-0.2c-1.5-0.5-2.3-2.2-1.8-3.7l3.1-8.8c0.5-1.5,2.2-2.3,3.7-1.8
		c1.5,0.5,2.3,2.2,1.8,3.7l-3.1,8.8C37.7,151.2,36.6,151.9,35.4,151.9z"/>
</g>
<g>
	<path class="st0" d="M43.6,128.9c-0.3,0-0.7-0.1-1-0.2c-1.5-0.5-2.3-2.2-1.8-3.7l3.1-8.8c0.5-1.5,2.2-2.3,3.7-1.8
		c1.5,0.5,2.3,2.2,1.8,3.7l-3.1,8.8C45.9,128.2,44.8,128.9,43.6,128.9z"/>
</g>
</svg>
