<?xml version="1.0" encoding="utf-8"?>
<!-- Generator: Adobe Illustrator 24.0.3, SVG Export Plug-In . SVG Version: 6.00 Build 0)  -->
<svg version="1.1" id="Layer_1" xmlns="http://www.w3.org/2000/svg" xmlns:xlink="http://www.w3.org/1999/xlink" x="0px" y="0px"
	 width="159px" height="150px" viewBox="0 0 159 150" enable-background="new 0 0 159 150" xml:space="preserve">
<g>
	<defs>
		<rect id="SVGID_1_" width="159.025" height="150"/>
	</defs>
	<clipPath id="SVGID_2_">
		<use xlink:href="#SVGID_1_"  overflow="visible"/>
	</clipPath>
	<path clip-path="url(#SVGID_2_)" fill="#FFFFFF" d="M152.221,76.944l-0.095,15.77h-42.115l-0.144,6.763l38.906,0.16l-0.11,15.181
		h-37.71l-0.137,6.763l26.434,0.124v14.373H51.45V56.292h15.439c0,0,26.218-20.694,31.426-48.989
		c5.565,0.175,9.323,1.658,11.194,4.427c5.335,7.893-3.597,27.745-7.672,36.601c-2.426,5.271-4.3,7.961-4.3,7.961h46.085v13.716
		H109.06l-0.144,6.762L152.221,76.944z M159.025,99.656V70.098l-8.462-0.09V49.35H109.37c5.795-12.856,13.41-30.993,6.175-41.699
		c-3.697-5.474-10.601-8.036-20.5-7.604l-3.049,0.131l-0.404,3.025C88.253,28.132,68.794,45.342,63.85,49.35H51.45v-7.746H0.178H0
		v72.645h6.941V48.545h37.568v94.475v0.039H6.941V108.77H0V150h51.45v-6.98h92.742v-21.285l11.364,0.025V99.656H159.025z"/>
	<path clip-path="url(#SVGID_2_)" fill="#FFFFFF" d="M25.495,75.922c2.414,0,4.371-1.957,4.371-4.371
		c0-2.415-1.957-4.372-4.371-4.372s-4.371,1.957-4.371,4.372C21.124,73.965,23.081,75.922,25.495,75.922"/>
</g>
</svg>
