<?xml version="1.0" encoding="utf-8"?>
<!-- Generator: Adobe Illustrator 24.2.1, SVG Export Plug-In . SVG Version: 6.00 Build 0)  -->
<svg version="1.1" id="Layer_1" xmlns="http://www.w3.org/2000/svg" xmlns:xlink="http://www.w3.org/1999/xlink" x="0px" y="0px"
	 viewBox="0 0 129.66 76.27" style="enable-background:new 0 0 129.66 76.27;" xml:space="preserve">
<style type="text/css">
	.st0{fill:#FFFFFF;}
</style>
<path class="st0" d="M96.02,53.99c-5.82,0-10.54-4.72-10.54-10.54c0-5.83,4.72-10.55,10.54-10.55s10.54,4.72,10.54,10.55
	C106.57,49.27,101.85,53.99,96.02,53.99 M96.02,28.23c-8.4,0-15.22,6.81-15.22,15.22c0,8.4,6.81,15.22,15.22,15.22
	c8.4,0,15.22-6.81,15.22-15.22S104.43,28.23,96.02,28.23 M96.03,68.84c-13.94,0-25.24-11.3-25.24-25.24s11.3-25.24,25.24-25.24
	s25.24,11.3,25.24,25.24C121.27,57.53,109.97,68.84,96.03,68.84 M33.38,12.25c8.97-3.91,20.11-6.01,31.31-6.01
	c11.22,0,21.39,2.11,30.37,6.04C78.2,12.79,64.68,26.6,64.68,43.59C64.68,26.29,50.67,12.27,33.38,12.25 M33.33,68.84
	c-13.94,0-25.24-11.3-25.24-25.24s11.3-25.24,25.24-25.24s25.24,11.3,25.24,25.24C58.57,57.53,47.27,68.84,33.33,68.84
	 M127.66,12.68H106.7C96.02,5.49,81.42,1,64.69,1C47.95,1,32.35,5.49,21.66,12.68H1.7c3.26,3.81,5.66,8.96,6.26,12.5
	C4.2,30.35,1.98,36.71,1.98,43.59c0,17.32,14.04,31.36,31.35,31.36c9.82,0,18.59-4.53,24.34-11.6c2.34,2.74,6.22,8.25,7.01,9.85
	c0,0,4.5-6.72,7.03-9.82c5.75,7.06,14.51,11.57,24.32,11.57c17.31,0,31.35-14.04,31.35-31.36c0-6.88-2.23-13.23-5.99-18.4
	C121.99,21.65,124.4,16.5,127.66,12.68 M32.96,54.06c-5.82,0-10.54-4.72-10.54-10.54s4.72-10.55,10.54-10.55
	c5.83,0,10.55,4.72,10.55,10.55S38.79,54.06,32.96,54.06 M32.96,28.3c-8.4,0-15.22,6.82-15.22,15.22c0,8.41,6.81,15.22,15.22,15.22
	s15.22-6.81,15.22-15.22S41.37,28.3,32.96,28.3"/>
</svg>
