<?xml version="1.0" encoding="utf-8"?>
<!-- Generator: Adobe Illustrator 24.0.3, SVG Export Plug-In . SVG Version: 6.00 Build 0)  -->
<svg version="1.1" id="Layer_1" xmlns="http://www.w3.org/2000/svg" xmlns:xlink="http://www.w3.org/1999/xlink" x="0px" y="0px"
	 width="225px" height="150px" viewBox="0 0 225 150" enable-background="new 0 0 225 150" xml:space="preserve">
<g>
	<defs>
		<rect id="SVGID_1_" x="-0.32" y="-0.04" width="225.32" height="150.186"/>
	</defs>
	<clipPath id="SVGID_2_">
		<use xlink:href="#SVGID_1_"  overflow="visible"/>
	</clipPath>
	<path clip-path="url(#SVGID_2_)" fill="#FFFFFF" d="M51.585,92.495l6.057,5.493c13.355-16.2,33.186-25.689,54.455-25.689
		c21.545,0,41.536,9.685,54.887,26.215l6.059-5.495c-14.89-18.223-37.065-28.883-60.946-28.883
		C88.495,64.135,66.479,74.602,51.585,92.495 M24.811,68.218l6.054,5.489c21.418-21.608,50.361-33.779,81.232-33.779
		c31.151,0,60.256,12.345,81.709,34.264l6.058-5.494c-23.003-23.627-54.283-36.933-87.767-36.933
		C78.897,31.765,47.779,44.902,24.811,68.218 M225.001,45.906C194.906,16.537,154.622-0.039,112.097-0.039
		C69.83-0.039,29.723,16.362-0.319,45.43l6.05,5.486C34.216,23.547,72.144,8.123,112.097,8.123
		c40.21,0,78.316,15.599,106.853,43.269L225.001,45.906z"/>
	<path clip-path="url(#SVGID_2_)" fill="#FFFFFF" d="M112.096,108.637c-9.193,0-16.672,7.481-16.672,16.675
		s7.479,16.672,16.672,16.672s16.673-7.478,16.673-16.672S121.289,108.637,112.096,108.637 M112.096,150.146
		c-13.694,0-24.835-11.14-24.835-24.835c0-13.695,11.141-24.837,24.835-24.837s24.836,11.142,24.836,24.837
		C136.932,139.006,125.79,150.146,112.096,150.146"/>
</g>
</svg>
